%TF.GenerationSoftware,KiCad,Pcbnew,(6.0.2-0)*%
%TF.CreationDate,2022-05-07T22:45:41-07:00*%
%TF.ProjectId,cpe301d_kicad_David_Nakasone,63706533-3031-4645-9f6b-696361645f44,rev?*%
%TF.SameCoordinates,Original*%
%TF.FileFunction,Soldermask,Bot*%
%TF.FilePolarity,Negative*%
%FSLAX46Y46*%
G04 Gerber Fmt 4.6, Leading zero omitted, Abs format (unit mm)*
G04 Created by KiCad (PCBNEW (6.0.2-0)) date 2022-05-07 22:45:41*
%MOMM*%
%LPD*%
G01*
G04 APERTURE LIST*
%TA.AperFunction,Profile*%
%ADD10C,0.150000*%
%TD*%
%ADD11O,1.727200X2.032000*%
%ADD12C,4.064000*%
%ADD13R,1.700000X1.700000*%
%ADD14O,1.700000X1.700000*%
%ADD15R,1.600000X1.600000*%
%ADD16C,1.600000*%
%ADD17R,1.222000X1.222000*%
%ADD18C,1.222000*%
G04 APERTURE END LIST*
D10*
X179578000Y-88519000D02*
X177038000Y-85979000D01*
X177038000Y-126365000D02*
X177038000Y-123825000D01*
X177038000Y-74549000D02*
X175514000Y-73025000D01*
X177038000Y-123825000D02*
X179578000Y-121285000D01*
X110998000Y-73025000D02*
X110998000Y-126365000D01*
X179578000Y-121285000D02*
X179578000Y-88519000D01*
X110998000Y-126365000D02*
X177038000Y-126365000D01*
X175514000Y-73025000D02*
X110998000Y-73025000D01*
X177038000Y-85979000D02*
X177038000Y-74549000D01*
D11*
%TO.C,P1*%
X138938000Y-123825000D03*
X141478000Y-123825000D03*
X144018000Y-123825000D03*
X146558000Y-123825000D03*
X149098000Y-123825000D03*
X151638000Y-123825000D03*
X154178000Y-123825000D03*
X156718000Y-123825000D03*
%TD*%
%TO.C,P2*%
X161798000Y-123825000D03*
X164338000Y-123825000D03*
X166878000Y-123825000D03*
X169418000Y-123825000D03*
X171958000Y-123825000D03*
X174498000Y-123825000D03*
%TD*%
%TO.C,P3*%
X129794000Y-75565000D03*
X132334000Y-75565000D03*
X134874000Y-75565000D03*
X137414000Y-75565000D03*
X139954000Y-75565000D03*
X142494000Y-75565000D03*
X145034000Y-75565000D03*
X147574000Y-75565000D03*
X150114000Y-75565000D03*
X152654000Y-75565000D03*
%TD*%
%TO.C,P4*%
X156718000Y-75565000D03*
X159258000Y-75565000D03*
X161798000Y-75565000D03*
X164338000Y-75565000D03*
X166878000Y-75565000D03*
X169418000Y-75565000D03*
X171958000Y-75565000D03*
X174498000Y-75565000D03*
%TD*%
D12*
%TO.C,P5*%
X124968000Y-123825000D03*
%TD*%
%TO.C,P6*%
X177038000Y-118745000D03*
%TD*%
%TO.C,P7*%
X123698000Y-78105000D03*
%TD*%
%TO.C,P8*%
X177038000Y-90805000D03*
%TD*%
D13*
%TO.C,J2*%
X169418000Y-100965000D03*
D14*
X166878000Y-100965000D03*
X164338000Y-100965000D03*
X161798000Y-100965000D03*
X159258000Y-100965000D03*
X156718000Y-100965000D03*
%TD*%
D13*
%TO.C,J1*%
X156718000Y-111125000D03*
D14*
X159258000Y-111125000D03*
X161798000Y-111125000D03*
X164338000Y-111125000D03*
X166878000Y-111125000D03*
X169418000Y-111125000D03*
%TD*%
D15*
%TO.C,C1*%
X131318000Y-98425000D03*
D16*
X128818000Y-98425000D03*
%TD*%
D17*
%TO.C,VR1*%
X133858000Y-88265000D03*
D18*
X131318000Y-90805000D03*
X128778000Y-88265000D03*
%TD*%
M02*
