%TF.GenerationSoftware,KiCad,Pcbnew,(6.0.2-0)*%
%TF.CreationDate,2022-05-07T22:45:41-07:00*%
%TF.ProjectId,cpe301d_kicad_David_Nakasone,63706533-3031-4645-9f6b-696361645f44,rev?*%
%TF.SameCoordinates,Original*%
%TF.FileFunction,Other,User*%
%FSLAX46Y46*%
G04 Gerber Fmt 4.6, Leading zero omitted, Abs format (unit mm)*
G04 Created by KiCad (PCBNEW (6.0.2-0)) date 2022-05-07 22:45:41*
%MOMM*%
%LPD*%
G01*
G04 APERTURE LIST*
%TA.AperFunction,Profile*%
%ADD10C,0.150000*%
%TD*%
%ADD11C,0.050000*%
G04 APERTURE END LIST*
D10*
X179578000Y-88519000D02*
X177038000Y-85979000D01*
X177038000Y-126365000D02*
X177038000Y-123825000D01*
X177038000Y-74549000D02*
X175514000Y-73025000D01*
X177038000Y-123825000D02*
X179578000Y-121285000D01*
X110998000Y-73025000D02*
X110998000Y-126365000D01*
X179578000Y-121285000D02*
X179578000Y-88519000D01*
X110998000Y-126365000D02*
X177038000Y-126365000D01*
X175514000Y-73025000D02*
X110998000Y-73025000D01*
X177038000Y-85979000D02*
X177038000Y-74549000D01*
D11*
%TO.C,P1*%
X137188000Y-122075000D02*
X158488000Y-122075000D01*
X137188000Y-122075000D02*
X137188000Y-125575000D01*
X158488000Y-122075000D02*
X158488000Y-125575000D01*
X137188000Y-125575000D02*
X158488000Y-125575000D01*
%TO.C,P2*%
X160048000Y-125575000D02*
X176248000Y-125575000D01*
X176248000Y-122075000D02*
X176248000Y-125575000D01*
X160048000Y-122075000D02*
X176248000Y-122075000D01*
X160048000Y-122075000D02*
X160048000Y-125575000D01*
%TO.C,P3*%
X128044000Y-77315000D02*
X154444000Y-77315000D01*
X154444000Y-73815000D02*
X154444000Y-77315000D01*
X128044000Y-73815000D02*
X154444000Y-73815000D01*
X128044000Y-73815000D02*
X128044000Y-77315000D01*
%TO.C,P4*%
X154968000Y-73815000D02*
X154968000Y-77315000D01*
X154968000Y-77315000D02*
X176268000Y-77315000D01*
X154968000Y-73815000D02*
X176268000Y-73815000D01*
X176268000Y-73815000D02*
X176268000Y-77315000D01*
%TO.C,J2*%
X154918000Y-102765000D02*
X171218000Y-102765000D01*
X154918000Y-99165000D02*
X154918000Y-102765000D01*
X171218000Y-99165000D02*
X154918000Y-99165000D01*
X171218000Y-102765000D02*
X171218000Y-99165000D01*
%TO.C,R3*%
X145050000Y-89026000D02*
X148066000Y-89026000D01*
X145050000Y-87504000D02*
X148066000Y-87504000D01*
X148066000Y-89026000D02*
X148066000Y-87504000D01*
X145050000Y-89026000D02*
X145050000Y-87504000D01*
%TO.C,J1*%
X171218000Y-112925000D02*
X171218000Y-109325000D01*
X171218000Y-109325000D02*
X154918000Y-109325000D01*
X154918000Y-109325000D02*
X154918000Y-112925000D01*
X154918000Y-112925000D02*
X171218000Y-112925000D01*
%TO.C,D1*%
X150388000Y-83895000D02*
X150388000Y-82475000D01*
X150528000Y-83895000D02*
X150388000Y-83895000D01*
X152748000Y-83895000D02*
X150528000Y-83895000D01*
X152748000Y-83895000D02*
X152888000Y-83895000D01*
X152748000Y-82475000D02*
X152888000Y-82475000D01*
X150528000Y-82475000D02*
X150388000Y-82475000D01*
X152888000Y-82475000D02*
X152888000Y-83895000D01*
X150528000Y-82475000D02*
X152748000Y-82475000D01*
%TO.C,D2*%
X152888000Y-87555000D02*
X152888000Y-88975000D01*
X150388000Y-88975000D02*
X150388000Y-87555000D01*
X150528000Y-88975000D02*
X150388000Y-88975000D01*
X152748000Y-87555000D02*
X152888000Y-87555000D01*
X150528000Y-87555000D02*
X150388000Y-87555000D01*
X152748000Y-88975000D02*
X152888000Y-88975000D01*
X152748000Y-88975000D02*
X150528000Y-88975000D01*
X150528000Y-87555000D02*
X152748000Y-87555000D01*
%TO.C,R2*%
X145050000Y-83946000D02*
X148066000Y-83946000D01*
X145050000Y-83946000D02*
X145050000Y-82424000D01*
X145050000Y-82424000D02*
X148066000Y-82424000D01*
X148066000Y-83946000D02*
X148066000Y-82424000D01*
%TO.C,C1*%
X132818000Y-98425000D02*
G75*
G03*
X132818000Y-98425000I-2750000J0D01*
G01*
%TO.C,S2*%
X164548000Y-92515000D02*
X164548000Y-84015000D01*
X159048000Y-84015000D02*
X159048000Y-92515000D01*
X164548000Y-84015000D02*
X159048000Y-84015000D01*
X159048000Y-92515000D02*
X164548000Y-92515000D01*
%TO.C,S1*%
X172168000Y-92515000D02*
X172168000Y-84015000D01*
X166668000Y-92515000D02*
X172168000Y-92515000D01*
X172168000Y-84015000D02*
X166668000Y-84015000D01*
X166668000Y-84015000D02*
X166668000Y-92515000D01*
%TO.C,R1*%
X132079000Y-110093000D02*
X130557000Y-110093000D01*
X130557000Y-110093000D02*
X130557000Y-107077000D01*
X132079000Y-110093000D02*
X132079000Y-107077000D01*
X132079000Y-107077000D02*
X130557000Y-107077000D01*
%TO.C,VR1*%
X134868000Y-91985000D02*
X127768000Y-91985000D01*
X127768000Y-84485000D02*
X134868000Y-84485000D01*
X134868000Y-84485000D02*
X134868000Y-91985000D01*
X127768000Y-91985000D02*
X127768000Y-84485000D01*
%TD*%
M02*
