%TF.GenerationSoftware,KiCad,Pcbnew,(6.0.2-0)*%
%TF.CreationDate,2022-05-07T22:45:41-07:00*%
%TF.ProjectId,cpe301d_kicad_David_Nakasone,63706533-3031-4645-9f6b-696361645f44,rev?*%
%TF.SameCoordinates,Original*%
%TF.FileFunction,Legend,Bot*%
%TF.FilePolarity,Positive*%
%FSLAX46Y46*%
G04 Gerber Fmt 4.6, Leading zero omitted, Abs format (unit mm)*
G04 Created by KiCad (PCBNEW (6.0.2-0)) date 2022-05-07 22:45:41*
%MOMM*%
%LPD*%
G01*
G04 APERTURE LIST*
%TA.AperFunction,Profile*%
%ADD10C,0.150000*%
%TD*%
%ADD11C,0.150000*%
G04 APERTURE END LIST*
D10*
X179578000Y-88519000D02*
X177038000Y-85979000D01*
X177038000Y-126365000D02*
X177038000Y-123825000D01*
X177038000Y-74549000D02*
X175514000Y-73025000D01*
X177038000Y-123825000D02*
X179578000Y-121285000D01*
X110998000Y-73025000D02*
X110998000Y-126365000D01*
X179578000Y-121285000D02*
X179578000Y-88519000D01*
X110998000Y-126365000D02*
X177038000Y-126365000D01*
X175514000Y-73025000D02*
X110998000Y-73025000D01*
X177038000Y-85979000D02*
X177038000Y-74549000D01*
D11*
X124150380Y-97766904D02*
X123150380Y-97766904D01*
X123150380Y-98005000D01*
X123198000Y-98147857D01*
X123293238Y-98243095D01*
X123388476Y-98290714D01*
X123578952Y-98338333D01*
X123721809Y-98338333D01*
X123912285Y-98290714D01*
X124007523Y-98243095D01*
X124102761Y-98147857D01*
X124150380Y-98005000D01*
X124150380Y-97766904D01*
X124150380Y-99195476D02*
X123626571Y-99195476D01*
X123531333Y-99147857D01*
X123483714Y-99052619D01*
X123483714Y-98862142D01*
X123531333Y-98766904D01*
X124102761Y-99195476D02*
X124150380Y-99100238D01*
X124150380Y-98862142D01*
X124102761Y-98766904D01*
X124007523Y-98719285D01*
X123912285Y-98719285D01*
X123817047Y-98766904D01*
X123769428Y-98862142D01*
X123769428Y-99100238D01*
X123721809Y-99195476D01*
X123483714Y-99576428D02*
X124150380Y-99814523D01*
X123483714Y-100052619D01*
X124150380Y-100433571D02*
X123483714Y-100433571D01*
X123150380Y-100433571D02*
X123198000Y-100385952D01*
X123245619Y-100433571D01*
X123198000Y-100481190D01*
X123150380Y-100433571D01*
X123245619Y-100433571D01*
X124150380Y-101338333D02*
X123150380Y-101338333D01*
X124102761Y-101338333D02*
X124150380Y-101243095D01*
X124150380Y-101052619D01*
X124102761Y-100957380D01*
X124055142Y-100909761D01*
X123959904Y-100862142D01*
X123674190Y-100862142D01*
X123578952Y-100909761D01*
X123531333Y-100957380D01*
X123483714Y-101052619D01*
X123483714Y-101243095D01*
X123531333Y-101338333D01*
X124150380Y-102576428D02*
X123150380Y-102576428D01*
X124150380Y-103147857D01*
X123150380Y-103147857D01*
X124150380Y-104052619D02*
X123626571Y-104052619D01*
X123531333Y-104005000D01*
X123483714Y-103909761D01*
X123483714Y-103719285D01*
X123531333Y-103624047D01*
X124102761Y-104052619D02*
X124150380Y-103957380D01*
X124150380Y-103719285D01*
X124102761Y-103624047D01*
X124007523Y-103576428D01*
X123912285Y-103576428D01*
X123817047Y-103624047D01*
X123769428Y-103719285D01*
X123769428Y-103957380D01*
X123721809Y-104052619D01*
X124150380Y-104528809D02*
X123150380Y-104528809D01*
X123769428Y-104624047D02*
X124150380Y-104909761D01*
X123483714Y-104909761D02*
X123864666Y-104528809D01*
X124150380Y-105766904D02*
X123626571Y-105766904D01*
X123531333Y-105719285D01*
X123483714Y-105624047D01*
X123483714Y-105433571D01*
X123531333Y-105338333D01*
X124102761Y-105766904D02*
X124150380Y-105671666D01*
X124150380Y-105433571D01*
X124102761Y-105338333D01*
X124007523Y-105290714D01*
X123912285Y-105290714D01*
X123817047Y-105338333D01*
X123769428Y-105433571D01*
X123769428Y-105671666D01*
X123721809Y-105766904D01*
X124102761Y-106195476D02*
X124150380Y-106290714D01*
X124150380Y-106481190D01*
X124102761Y-106576428D01*
X124007523Y-106624047D01*
X123959904Y-106624047D01*
X123864666Y-106576428D01*
X123817047Y-106481190D01*
X123817047Y-106338333D01*
X123769428Y-106243095D01*
X123674190Y-106195476D01*
X123626571Y-106195476D01*
X123531333Y-106243095D01*
X123483714Y-106338333D01*
X123483714Y-106481190D01*
X123531333Y-106576428D01*
X124150380Y-107195476D02*
X124102761Y-107100238D01*
X124055142Y-107052619D01*
X123959904Y-107005000D01*
X123674190Y-107005000D01*
X123578952Y-107052619D01*
X123531333Y-107100238D01*
X123483714Y-107195476D01*
X123483714Y-107338333D01*
X123531333Y-107433571D01*
X123578952Y-107481190D01*
X123674190Y-107528809D01*
X123959904Y-107528809D01*
X124055142Y-107481190D01*
X124102761Y-107433571D01*
X124150380Y-107338333D01*
X124150380Y-107195476D01*
X123483714Y-107957380D02*
X124150380Y-107957380D01*
X123578952Y-107957380D02*
X123531333Y-108005000D01*
X123483714Y-108100238D01*
X123483714Y-108243095D01*
X123531333Y-108338333D01*
X123626571Y-108385952D01*
X124150380Y-108385952D01*
X124102761Y-109243095D02*
X124150380Y-109147857D01*
X124150380Y-108957380D01*
X124102761Y-108862142D01*
X124007523Y-108814523D01*
X123626571Y-108814523D01*
X123531333Y-108862142D01*
X123483714Y-108957380D01*
X123483714Y-109147857D01*
X123531333Y-109243095D01*
X123626571Y-109290714D01*
X123721809Y-109290714D01*
X123817047Y-108814523D01*
M02*
