%TF.GenerationSoftware,KiCad,Pcbnew,(6.0.2-0)*%
%TF.CreationDate,2022-05-07T22:45:42-07:00*%
%TF.ProjectId,cpe301d_kicad_David_Nakasone,63706533-3031-4645-9f6b-696361645f44,rev?*%
%TF.SameCoordinates,Original*%
%TF.FileFunction,AssemblyDrawing,Top*%
%FSLAX46Y46*%
G04 Gerber Fmt 4.6, Leading zero omitted, Abs format (unit mm)*
G04 Created by KiCad (PCBNEW (6.0.2-0)) date 2022-05-07 22:45:42*
%MOMM*%
%LPD*%
G01*
G04 APERTURE LIST*
%TA.AperFunction,Profile*%
%ADD10C,0.150000*%
%TD*%
%ADD11C,0.150000*%
%ADD12C,0.098425*%
%ADD13C,0.100000*%
%ADD14C,0.127000*%
%ADD15C,0.120000*%
%ADD16C,0.200000*%
G04 APERTURE END LIST*
D10*
X179578000Y-88519000D02*
X177038000Y-85979000D01*
X177038000Y-126365000D02*
X177038000Y-123825000D01*
X177038000Y-74549000D02*
X175514000Y-73025000D01*
X177038000Y-123825000D02*
X179578000Y-121285000D01*
X110998000Y-73025000D02*
X110998000Y-126365000D01*
X179578000Y-121285000D02*
X179578000Y-88519000D01*
X110998000Y-126365000D02*
X177038000Y-126365000D01*
X175514000Y-73025000D02*
X110998000Y-73025000D01*
X177038000Y-85979000D02*
X177038000Y-74549000D01*
D11*
%TO.C,P1*%
X145851809Y-120213380D02*
X145851809Y-119213380D01*
X146232761Y-119213380D01*
X146328000Y-119261000D01*
X146375619Y-119308619D01*
X146423238Y-119403857D01*
X146423238Y-119546714D01*
X146375619Y-119641952D01*
X146328000Y-119689571D01*
X146232761Y-119737190D01*
X145851809Y-119737190D01*
X146994666Y-120213380D02*
X146899428Y-120165761D01*
X146851809Y-120118142D01*
X146804190Y-120022904D01*
X146804190Y-119737190D01*
X146851809Y-119641952D01*
X146899428Y-119594333D01*
X146994666Y-119546714D01*
X147137523Y-119546714D01*
X147232761Y-119594333D01*
X147280380Y-119641952D01*
X147328000Y-119737190D01*
X147328000Y-120022904D01*
X147280380Y-120118142D01*
X147232761Y-120165761D01*
X147137523Y-120213380D01*
X146994666Y-120213380D01*
X147661333Y-119546714D02*
X147851809Y-120213380D01*
X148042285Y-119737190D01*
X148232761Y-120213380D01*
X148423238Y-119546714D01*
X149185142Y-120165761D02*
X149089904Y-120213380D01*
X148899428Y-120213380D01*
X148804190Y-120165761D01*
X148756571Y-120070523D01*
X148756571Y-119689571D01*
X148804190Y-119594333D01*
X148899428Y-119546714D01*
X149089904Y-119546714D01*
X149185142Y-119594333D01*
X149232761Y-119689571D01*
X149232761Y-119784809D01*
X148756571Y-119880047D01*
X149661333Y-120213380D02*
X149661333Y-119546714D01*
X149661333Y-119737190D02*
X149708952Y-119641952D01*
X149756571Y-119594333D01*
X149851809Y-119546714D01*
X149947047Y-119546714D01*
%TO.C,P2*%
X166092476Y-119927666D02*
X166568666Y-119927666D01*
X165997238Y-120213380D02*
X166330571Y-119213380D01*
X166663904Y-120213380D01*
X166997238Y-119546714D02*
X166997238Y-120213380D01*
X166997238Y-119641952D02*
X167044857Y-119594333D01*
X167140095Y-119546714D01*
X167282952Y-119546714D01*
X167378190Y-119594333D01*
X167425809Y-119689571D01*
X167425809Y-120213380D01*
X168330571Y-120213380D02*
X168330571Y-119689571D01*
X168282952Y-119594333D01*
X168187714Y-119546714D01*
X167997238Y-119546714D01*
X167902000Y-119594333D01*
X168330571Y-120165761D02*
X168235333Y-120213380D01*
X167997238Y-120213380D01*
X167902000Y-120165761D01*
X167854380Y-120070523D01*
X167854380Y-119975285D01*
X167902000Y-119880047D01*
X167997238Y-119832428D01*
X168235333Y-119832428D01*
X168330571Y-119784809D01*
X168949619Y-120213380D02*
X168854380Y-120165761D01*
X168806761Y-120070523D01*
X168806761Y-119213380D01*
X169473428Y-120213380D02*
X169378190Y-120165761D01*
X169330571Y-120118142D01*
X169282952Y-120022904D01*
X169282952Y-119737190D01*
X169330571Y-119641952D01*
X169378190Y-119594333D01*
X169473428Y-119546714D01*
X169616285Y-119546714D01*
X169711523Y-119594333D01*
X169759142Y-119641952D01*
X169806761Y-119737190D01*
X169806761Y-120022904D01*
X169759142Y-120118142D01*
X169711523Y-120165761D01*
X169616285Y-120213380D01*
X169473428Y-120213380D01*
X170663904Y-119546714D02*
X170663904Y-120356238D01*
X170616285Y-120451476D01*
X170568666Y-120499095D01*
X170473428Y-120546714D01*
X170330571Y-120546714D01*
X170235333Y-120499095D01*
X170663904Y-120165761D02*
X170568666Y-120213380D01*
X170378190Y-120213380D01*
X170282952Y-120165761D01*
X170235333Y-120118142D01*
X170187714Y-120022904D01*
X170187714Y-119737190D01*
X170235333Y-119641952D01*
X170282952Y-119594333D01*
X170378190Y-119546714D01*
X170568666Y-119546714D01*
X170663904Y-119594333D01*
%TO.C,P3*%
X139033523Y-80335380D02*
X139033523Y-79335380D01*
X139271619Y-79335380D01*
X139414476Y-79383000D01*
X139509714Y-79478238D01*
X139557333Y-79573476D01*
X139604952Y-79763952D01*
X139604952Y-79906809D01*
X139557333Y-80097285D01*
X139509714Y-80192523D01*
X139414476Y-80287761D01*
X139271619Y-80335380D01*
X139033523Y-80335380D01*
X140033523Y-80335380D02*
X140033523Y-79668714D01*
X140033523Y-79335380D02*
X139985904Y-79383000D01*
X140033523Y-79430619D01*
X140081142Y-79383000D01*
X140033523Y-79335380D01*
X140033523Y-79430619D01*
X140938285Y-79668714D02*
X140938285Y-80478238D01*
X140890666Y-80573476D01*
X140843047Y-80621095D01*
X140747809Y-80668714D01*
X140604952Y-80668714D01*
X140509714Y-80621095D01*
X140938285Y-80287761D02*
X140843047Y-80335380D01*
X140652571Y-80335380D01*
X140557333Y-80287761D01*
X140509714Y-80240142D01*
X140462095Y-80144904D01*
X140462095Y-79859190D01*
X140509714Y-79763952D01*
X140557333Y-79716333D01*
X140652571Y-79668714D01*
X140843047Y-79668714D01*
X140938285Y-79716333D01*
X141414476Y-80335380D02*
X141414476Y-79668714D01*
X141414476Y-79335380D02*
X141366857Y-79383000D01*
X141414476Y-79430619D01*
X141462095Y-79383000D01*
X141414476Y-79335380D01*
X141414476Y-79430619D01*
X141747809Y-79668714D02*
X142128761Y-79668714D01*
X141890666Y-79335380D02*
X141890666Y-80192523D01*
X141938285Y-80287761D01*
X142033523Y-80335380D01*
X142128761Y-80335380D01*
X142890666Y-80335380D02*
X142890666Y-79811571D01*
X142843047Y-79716333D01*
X142747809Y-79668714D01*
X142557333Y-79668714D01*
X142462095Y-79716333D01*
X142890666Y-80287761D02*
X142795428Y-80335380D01*
X142557333Y-80335380D01*
X142462095Y-80287761D01*
X142414476Y-80192523D01*
X142414476Y-80097285D01*
X142462095Y-80002047D01*
X142557333Y-79954428D01*
X142795428Y-79954428D01*
X142890666Y-79906809D01*
X143509714Y-80335380D02*
X143414476Y-80287761D01*
X143366857Y-80192523D01*
X143366857Y-79335380D01*
%TO.C,P4*%
X163417523Y-80335380D02*
X163417523Y-79335380D01*
X163655619Y-79335380D01*
X163798476Y-79383000D01*
X163893714Y-79478238D01*
X163941333Y-79573476D01*
X163988952Y-79763952D01*
X163988952Y-79906809D01*
X163941333Y-80097285D01*
X163893714Y-80192523D01*
X163798476Y-80287761D01*
X163655619Y-80335380D01*
X163417523Y-80335380D01*
X164417523Y-80335380D02*
X164417523Y-79668714D01*
X164417523Y-79335380D02*
X164369904Y-79383000D01*
X164417523Y-79430619D01*
X164465142Y-79383000D01*
X164417523Y-79335380D01*
X164417523Y-79430619D01*
X165322285Y-79668714D02*
X165322285Y-80478238D01*
X165274666Y-80573476D01*
X165227047Y-80621095D01*
X165131809Y-80668714D01*
X164988952Y-80668714D01*
X164893714Y-80621095D01*
X165322285Y-80287761D02*
X165227047Y-80335380D01*
X165036571Y-80335380D01*
X164941333Y-80287761D01*
X164893714Y-80240142D01*
X164846095Y-80144904D01*
X164846095Y-79859190D01*
X164893714Y-79763952D01*
X164941333Y-79716333D01*
X165036571Y-79668714D01*
X165227047Y-79668714D01*
X165322285Y-79716333D01*
X165798476Y-80335380D02*
X165798476Y-79668714D01*
X165798476Y-79335380D02*
X165750857Y-79383000D01*
X165798476Y-79430619D01*
X165846095Y-79383000D01*
X165798476Y-79335380D01*
X165798476Y-79430619D01*
X166131809Y-79668714D02*
X166512761Y-79668714D01*
X166274666Y-79335380D02*
X166274666Y-80192523D01*
X166322285Y-80287761D01*
X166417523Y-80335380D01*
X166512761Y-80335380D01*
X167274666Y-80335380D02*
X167274666Y-79811571D01*
X167227047Y-79716333D01*
X167131809Y-79668714D01*
X166941333Y-79668714D01*
X166846095Y-79716333D01*
X167274666Y-80287761D02*
X167179428Y-80335380D01*
X166941333Y-80335380D01*
X166846095Y-80287761D01*
X166798476Y-80192523D01*
X166798476Y-80097285D01*
X166846095Y-80002047D01*
X166941333Y-79954428D01*
X167179428Y-79954428D01*
X167274666Y-79906809D01*
X167893714Y-80335380D02*
X167798476Y-80287761D01*
X167750857Y-80192523D01*
X167750857Y-79335380D01*
%TO.C,J2*%
X153840380Y-101298333D02*
X154554666Y-101298333D01*
X154697523Y-101345952D01*
X154792761Y-101441190D01*
X154840380Y-101584047D01*
X154840380Y-101679285D01*
X153935619Y-100869761D02*
X153888000Y-100822142D01*
X153840380Y-100726904D01*
X153840380Y-100488809D01*
X153888000Y-100393571D01*
X153935619Y-100345952D01*
X154030857Y-100298333D01*
X154126095Y-100298333D01*
X154268952Y-100345952D01*
X154840380Y-100917380D01*
X154840380Y-100298333D01*
X162734666Y-100417380D02*
X162734666Y-101131666D01*
X162687047Y-101274523D01*
X162591809Y-101369761D01*
X162448952Y-101417380D01*
X162353714Y-101417380D01*
X163163238Y-100512619D02*
X163210857Y-100465000D01*
X163306095Y-100417380D01*
X163544190Y-100417380D01*
X163639428Y-100465000D01*
X163687047Y-100512619D01*
X163734666Y-100607857D01*
X163734666Y-100703095D01*
X163687047Y-100845952D01*
X163115619Y-101417380D01*
X163734666Y-101417380D01*
D12*
%TO.C,R3*%
X145713915Y-89543102D02*
X145582681Y-89355626D01*
X145488943Y-89543102D02*
X145488943Y-89149401D01*
X145638924Y-89149401D01*
X145676420Y-89168149D01*
X145695167Y-89186897D01*
X145713915Y-89224392D01*
X145713915Y-89280635D01*
X145695167Y-89318130D01*
X145676420Y-89336878D01*
X145638924Y-89355626D01*
X145488943Y-89355626D01*
X146107616Y-89505607D02*
X146088868Y-89524355D01*
X146032625Y-89543102D01*
X145995130Y-89543102D01*
X145938887Y-89524355D01*
X145901392Y-89486859D01*
X145882644Y-89449364D01*
X145863896Y-89374373D01*
X145863896Y-89318130D01*
X145882644Y-89243140D01*
X145901392Y-89205644D01*
X145938887Y-89168149D01*
X145995130Y-89149401D01*
X146032625Y-89149401D01*
X146088868Y-89168149D01*
X146107616Y-89186897D01*
X146351336Y-89149401D02*
X146388831Y-89149401D01*
X146426326Y-89168149D01*
X146445074Y-89186897D01*
X146463822Y-89224392D01*
X146482569Y-89299383D01*
X146482569Y-89393121D01*
X146463822Y-89468112D01*
X146445074Y-89505607D01*
X146426326Y-89524355D01*
X146388831Y-89543102D01*
X146351336Y-89543102D01*
X146313840Y-89524355D01*
X146295093Y-89505607D01*
X146276345Y-89468112D01*
X146257597Y-89393121D01*
X146257597Y-89299383D01*
X146276345Y-89224392D01*
X146295093Y-89186897D01*
X146313840Y-89168149D01*
X146351336Y-89149401D01*
X146820027Y-89149401D02*
X146745037Y-89149401D01*
X146707541Y-89168149D01*
X146688794Y-89186897D01*
X146651298Y-89243140D01*
X146632551Y-89318130D01*
X146632551Y-89468112D01*
X146651298Y-89505607D01*
X146670046Y-89524355D01*
X146707541Y-89543102D01*
X146782532Y-89543102D01*
X146820027Y-89524355D01*
X146838775Y-89505607D01*
X146857523Y-89468112D01*
X146857523Y-89374373D01*
X146838775Y-89336878D01*
X146820027Y-89318130D01*
X146782532Y-89299383D01*
X146707541Y-89299383D01*
X146670046Y-89318130D01*
X146651298Y-89336878D01*
X146632551Y-89374373D01*
X147101242Y-89149401D02*
X147138738Y-89149401D01*
X147176233Y-89168149D01*
X147194981Y-89186897D01*
X147213728Y-89224392D01*
X147232476Y-89299383D01*
X147232476Y-89393121D01*
X147213728Y-89468112D01*
X147194981Y-89505607D01*
X147176233Y-89524355D01*
X147138738Y-89543102D01*
X147101242Y-89543102D01*
X147063747Y-89524355D01*
X147044999Y-89505607D01*
X147026252Y-89468112D01*
X147007504Y-89393121D01*
X147007504Y-89299383D01*
X147026252Y-89224392D01*
X147044999Y-89186897D01*
X147063747Y-89168149D01*
X147101242Y-89149401D01*
X147363710Y-89149401D02*
X147607429Y-89149401D01*
X147476196Y-89299383D01*
X147532439Y-89299383D01*
X147569934Y-89318130D01*
X147588682Y-89336878D01*
X147607429Y-89374373D01*
X147607429Y-89468112D01*
X147588682Y-89505607D01*
X147569934Y-89524355D01*
X147532439Y-89543102D01*
X147419953Y-89543102D01*
X147382457Y-89524355D01*
X147363710Y-89505607D01*
X147888644Y-89149401D02*
X147888644Y-89430616D01*
X147869897Y-89486859D01*
X147832401Y-89524355D01*
X147776158Y-89543102D01*
X147738663Y-89543102D01*
X148301093Y-89543102D02*
X148169859Y-89355626D01*
X148076121Y-89543102D02*
X148076121Y-89149401D01*
X148226102Y-89149401D01*
X148263598Y-89168149D01*
X148282345Y-89186897D01*
X148301093Y-89224392D01*
X148301093Y-89280635D01*
X148282345Y-89318130D01*
X148263598Y-89336878D01*
X148226102Y-89355626D01*
X148076121Y-89355626D01*
X148469822Y-89393121D02*
X148769785Y-89393121D01*
X149032252Y-89149401D02*
X149069747Y-89149401D01*
X149107243Y-89168149D01*
X149125990Y-89186897D01*
X149144738Y-89224392D01*
X149163486Y-89299383D01*
X149163486Y-89393121D01*
X149144738Y-89468112D01*
X149125990Y-89505607D01*
X149107243Y-89524355D01*
X149069747Y-89543102D01*
X149032252Y-89543102D01*
X148994757Y-89524355D01*
X148976009Y-89505607D01*
X148957261Y-89468112D01*
X148938514Y-89393121D01*
X148938514Y-89299383D01*
X148957261Y-89224392D01*
X148976009Y-89186897D01*
X148994757Y-89168149D01*
X149032252Y-89149401D01*
X149294719Y-89149401D02*
X149557187Y-89149401D01*
X149388458Y-89543102D01*
X149913392Y-89543102D02*
X149688420Y-89543102D01*
X149800906Y-89543102D02*
X149800906Y-89149401D01*
X149763411Y-89205644D01*
X149725916Y-89243140D01*
X149688420Y-89261887D01*
X150082121Y-89543102D02*
X150082121Y-89149401D01*
X150307093Y-89543102D02*
X150138364Y-89318130D01*
X150307093Y-89149401D02*
X150082121Y-89374373D01*
X150663299Y-89543102D02*
X150475822Y-89543102D01*
X150475822Y-89149401D01*
D11*
%TO.C,J1*%
X171410380Y-111458333D02*
X172124666Y-111458333D01*
X172267523Y-111505952D01*
X172362761Y-111601190D01*
X172410380Y-111744047D01*
X172410380Y-111839285D01*
X172410380Y-110458333D02*
X172410380Y-111029761D01*
X172410380Y-110744047D02*
X171410380Y-110744047D01*
X171553238Y-110839285D01*
X171648476Y-110934523D01*
X171696095Y-111029761D01*
X162734666Y-110577380D02*
X162734666Y-111291666D01*
X162687047Y-111434523D01*
X162591809Y-111529761D01*
X162448952Y-111577380D01*
X162353714Y-111577380D01*
X163734666Y-111577380D02*
X163163238Y-111577380D01*
X163448952Y-111577380D02*
X163448952Y-110577380D01*
X163353714Y-110720238D01*
X163258476Y-110815476D01*
X163163238Y-110863095D01*
%TO.C,D1*%
X147978952Y-81097380D02*
X147502761Y-81097380D01*
X147502761Y-80097380D01*
X148312285Y-80573571D02*
X148645619Y-80573571D01*
X148788476Y-81097380D02*
X148312285Y-81097380D01*
X148312285Y-80097380D01*
X148788476Y-80097380D01*
X149217047Y-81097380D02*
X149217047Y-80097380D01*
X149455142Y-80097380D01*
X149598000Y-80145000D01*
X149693238Y-80240238D01*
X149740857Y-80335476D01*
X149788476Y-80525952D01*
X149788476Y-80668809D01*
X149740857Y-80859285D01*
X149693238Y-80954523D01*
X149598000Y-81049761D01*
X149455142Y-81097380D01*
X149217047Y-81097380D01*
X150740857Y-81097380D02*
X150169428Y-81097380D01*
X150455142Y-81097380D02*
X150455142Y-80097380D01*
X150359904Y-80240238D01*
X150264666Y-80335476D01*
X150169428Y-80383095D01*
%TO.C,D2*%
X150518952Y-93797380D02*
X150042761Y-93797380D01*
X150042761Y-92797380D01*
X150852285Y-93273571D02*
X151185619Y-93273571D01*
X151328476Y-93797380D02*
X150852285Y-93797380D01*
X150852285Y-92797380D01*
X151328476Y-92797380D01*
X151757047Y-93797380D02*
X151757047Y-92797380D01*
X151995142Y-92797380D01*
X152138000Y-92845000D01*
X152233238Y-92940238D01*
X152280857Y-93035476D01*
X152328476Y-93225952D01*
X152328476Y-93368809D01*
X152280857Y-93559285D01*
X152233238Y-93654523D01*
X152138000Y-93749761D01*
X151995142Y-93797380D01*
X151757047Y-93797380D01*
X152709428Y-92892619D02*
X152757047Y-92845000D01*
X152852285Y-92797380D01*
X153090380Y-92797380D01*
X153185619Y-92845000D01*
X153233238Y-92892619D01*
X153280857Y-92987857D01*
X153280857Y-93083095D01*
X153233238Y-93225952D01*
X152661809Y-93797380D01*
X153280857Y-93797380D01*
D12*
%TO.C,R2*%
X145713915Y-84463102D02*
X145582681Y-84275626D01*
X145488943Y-84463102D02*
X145488943Y-84069401D01*
X145638924Y-84069401D01*
X145676420Y-84088149D01*
X145695167Y-84106897D01*
X145713915Y-84144392D01*
X145713915Y-84200635D01*
X145695167Y-84238130D01*
X145676420Y-84256878D01*
X145638924Y-84275626D01*
X145488943Y-84275626D01*
X146107616Y-84425607D02*
X146088868Y-84444355D01*
X146032625Y-84463102D01*
X145995130Y-84463102D01*
X145938887Y-84444355D01*
X145901392Y-84406859D01*
X145882644Y-84369364D01*
X145863896Y-84294373D01*
X145863896Y-84238130D01*
X145882644Y-84163140D01*
X145901392Y-84125644D01*
X145938887Y-84088149D01*
X145995130Y-84069401D01*
X146032625Y-84069401D01*
X146088868Y-84088149D01*
X146107616Y-84106897D01*
X146351336Y-84069401D02*
X146388831Y-84069401D01*
X146426326Y-84088149D01*
X146445074Y-84106897D01*
X146463822Y-84144392D01*
X146482569Y-84219383D01*
X146482569Y-84313121D01*
X146463822Y-84388112D01*
X146445074Y-84425607D01*
X146426326Y-84444355D01*
X146388831Y-84463102D01*
X146351336Y-84463102D01*
X146313840Y-84444355D01*
X146295093Y-84425607D01*
X146276345Y-84388112D01*
X146257597Y-84313121D01*
X146257597Y-84219383D01*
X146276345Y-84144392D01*
X146295093Y-84106897D01*
X146313840Y-84088149D01*
X146351336Y-84069401D01*
X146820027Y-84069401D02*
X146745037Y-84069401D01*
X146707541Y-84088149D01*
X146688794Y-84106897D01*
X146651298Y-84163140D01*
X146632551Y-84238130D01*
X146632551Y-84388112D01*
X146651298Y-84425607D01*
X146670046Y-84444355D01*
X146707541Y-84463102D01*
X146782532Y-84463102D01*
X146820027Y-84444355D01*
X146838775Y-84425607D01*
X146857523Y-84388112D01*
X146857523Y-84294373D01*
X146838775Y-84256878D01*
X146820027Y-84238130D01*
X146782532Y-84219383D01*
X146707541Y-84219383D01*
X146670046Y-84238130D01*
X146651298Y-84256878D01*
X146632551Y-84294373D01*
X147101242Y-84069401D02*
X147138738Y-84069401D01*
X147176233Y-84088149D01*
X147194981Y-84106897D01*
X147213728Y-84144392D01*
X147232476Y-84219383D01*
X147232476Y-84313121D01*
X147213728Y-84388112D01*
X147194981Y-84425607D01*
X147176233Y-84444355D01*
X147138738Y-84463102D01*
X147101242Y-84463102D01*
X147063747Y-84444355D01*
X147044999Y-84425607D01*
X147026252Y-84388112D01*
X147007504Y-84313121D01*
X147007504Y-84219383D01*
X147026252Y-84144392D01*
X147044999Y-84106897D01*
X147063747Y-84088149D01*
X147101242Y-84069401D01*
X147363710Y-84069401D02*
X147607429Y-84069401D01*
X147476196Y-84219383D01*
X147532439Y-84219383D01*
X147569934Y-84238130D01*
X147588682Y-84256878D01*
X147607429Y-84294373D01*
X147607429Y-84388112D01*
X147588682Y-84425607D01*
X147569934Y-84444355D01*
X147532439Y-84463102D01*
X147419953Y-84463102D01*
X147382457Y-84444355D01*
X147363710Y-84425607D01*
X147888644Y-84069401D02*
X147888644Y-84350616D01*
X147869897Y-84406859D01*
X147832401Y-84444355D01*
X147776158Y-84463102D01*
X147738663Y-84463102D01*
X148301093Y-84463102D02*
X148169859Y-84275626D01*
X148076121Y-84463102D02*
X148076121Y-84069401D01*
X148226102Y-84069401D01*
X148263598Y-84088149D01*
X148282345Y-84106897D01*
X148301093Y-84144392D01*
X148301093Y-84200635D01*
X148282345Y-84238130D01*
X148263598Y-84256878D01*
X148226102Y-84275626D01*
X148076121Y-84275626D01*
X148469822Y-84313121D02*
X148769785Y-84313121D01*
X149032252Y-84069401D02*
X149069747Y-84069401D01*
X149107243Y-84088149D01*
X149125990Y-84106897D01*
X149144738Y-84144392D01*
X149163486Y-84219383D01*
X149163486Y-84313121D01*
X149144738Y-84388112D01*
X149125990Y-84425607D01*
X149107243Y-84444355D01*
X149069747Y-84463102D01*
X149032252Y-84463102D01*
X148994757Y-84444355D01*
X148976009Y-84425607D01*
X148957261Y-84388112D01*
X148938514Y-84313121D01*
X148938514Y-84219383D01*
X148957261Y-84144392D01*
X148976009Y-84106897D01*
X148994757Y-84088149D01*
X149032252Y-84069401D01*
X149294719Y-84069401D02*
X149557187Y-84069401D01*
X149388458Y-84463102D01*
X149913392Y-84463102D02*
X149688420Y-84463102D01*
X149800906Y-84463102D02*
X149800906Y-84069401D01*
X149763411Y-84125644D01*
X149725916Y-84163140D01*
X149688420Y-84181887D01*
X150082121Y-84463102D02*
X150082121Y-84069401D01*
X150307093Y-84463102D02*
X150138364Y-84238130D01*
X150307093Y-84069401D02*
X150082121Y-84294373D01*
X150663299Y-84463102D02*
X150475822Y-84463102D01*
X150475822Y-84069401D01*
D11*
%TO.C,C1*%
X128520380Y-95127380D02*
X127948952Y-95127380D01*
X128234666Y-95127380D02*
X128234666Y-94127380D01*
X128139428Y-94270238D01*
X128044190Y-94365476D01*
X127948952Y-94413095D01*
X129139428Y-94127380D02*
X129234666Y-94127380D01*
X129329904Y-94175000D01*
X129377523Y-94222619D01*
X129425142Y-94317857D01*
X129472761Y-94508333D01*
X129472761Y-94746428D01*
X129425142Y-94936904D01*
X129377523Y-95032142D01*
X129329904Y-95079761D01*
X129234666Y-95127380D01*
X129139428Y-95127380D01*
X129044190Y-95079761D01*
X128996571Y-95032142D01*
X128948952Y-94936904D01*
X128901333Y-94746428D01*
X128901333Y-94508333D01*
X128948952Y-94317857D01*
X128996571Y-94222619D01*
X129044190Y-94175000D01*
X129139428Y-94127380D01*
X130091809Y-94127380D02*
X130187047Y-94127380D01*
X130282285Y-94175000D01*
X130329904Y-94222619D01*
X130377523Y-94317857D01*
X130425142Y-94508333D01*
X130425142Y-94746428D01*
X130377523Y-94936904D01*
X130329904Y-95032142D01*
X130282285Y-95079761D01*
X130187047Y-95127380D01*
X130091809Y-95127380D01*
X129996571Y-95079761D01*
X129948952Y-95032142D01*
X129901333Y-94936904D01*
X129853714Y-94746428D01*
X129853714Y-94508333D01*
X129901333Y-94317857D01*
X129948952Y-94222619D01*
X129996571Y-94175000D01*
X130091809Y-94127380D01*
X130853714Y-94460714D02*
X130853714Y-95127380D01*
X130853714Y-94555952D02*
X130901333Y-94508333D01*
X130996571Y-94460714D01*
X131139428Y-94460714D01*
X131234666Y-94508333D01*
X131282285Y-94603571D01*
X131282285Y-95127380D01*
X132091809Y-94603571D02*
X131758476Y-94603571D01*
X131758476Y-95127380D02*
X131758476Y-94127380D01*
X132234666Y-94127380D01*
X129901333Y-98782142D02*
X129853714Y-98829761D01*
X129710857Y-98877380D01*
X129615619Y-98877380D01*
X129472761Y-98829761D01*
X129377523Y-98734523D01*
X129329904Y-98639285D01*
X129282285Y-98448809D01*
X129282285Y-98305952D01*
X129329904Y-98115476D01*
X129377523Y-98020238D01*
X129472761Y-97925000D01*
X129615619Y-97877380D01*
X129710857Y-97877380D01*
X129853714Y-97925000D01*
X129901333Y-97972619D01*
X130853714Y-98877380D02*
X130282285Y-98877380D01*
X130568000Y-98877380D02*
X130568000Y-97877380D01*
X130472761Y-98020238D01*
X130377523Y-98115476D01*
X130282285Y-98163095D01*
%TO.C,S2*%
X165463447Y-85828733D02*
X165493923Y-85737304D01*
X165493923Y-85584923D01*
X165463447Y-85523971D01*
X165432971Y-85493495D01*
X165372019Y-85463019D01*
X165311066Y-85463019D01*
X165250114Y-85493495D01*
X165219638Y-85523971D01*
X165189161Y-85584923D01*
X165158685Y-85706828D01*
X165128209Y-85767780D01*
X165097733Y-85798257D01*
X165036780Y-85828733D01*
X164975828Y-85828733D01*
X164914876Y-85798257D01*
X164884400Y-85767780D01*
X164853923Y-85706828D01*
X164853923Y-85554447D01*
X164884400Y-85463019D01*
X164853923Y-85249685D02*
X165493923Y-85097304D01*
X165036780Y-84975400D01*
X165493923Y-84853495D01*
X164853923Y-84701114D01*
X164914876Y-84487780D02*
X164884400Y-84457304D01*
X164853923Y-84396352D01*
X164853923Y-84243971D01*
X164884400Y-84183019D01*
X164914876Y-84152542D01*
X164975828Y-84122066D01*
X165036780Y-84122066D01*
X165128209Y-84152542D01*
X165493923Y-84518257D01*
X165493923Y-84122066D01*
%TO.C,S1*%
X173083447Y-85828733D02*
X173113923Y-85737304D01*
X173113923Y-85584923D01*
X173083447Y-85523971D01*
X173052971Y-85493495D01*
X172992019Y-85463019D01*
X172931066Y-85463019D01*
X172870114Y-85493495D01*
X172839638Y-85523971D01*
X172809161Y-85584923D01*
X172778685Y-85706828D01*
X172748209Y-85767780D01*
X172717733Y-85798257D01*
X172656780Y-85828733D01*
X172595828Y-85828733D01*
X172534876Y-85798257D01*
X172504400Y-85767780D01*
X172473923Y-85706828D01*
X172473923Y-85554447D01*
X172504400Y-85463019D01*
X172473923Y-85249685D02*
X173113923Y-85097304D01*
X172656780Y-84975400D01*
X173113923Y-84853495D01*
X172473923Y-84701114D01*
X173113923Y-84122066D02*
X173113923Y-84487780D01*
X173113923Y-84304923D02*
X172473923Y-84304923D01*
X172565352Y-84365876D01*
X172626304Y-84426828D01*
X172656780Y-84487780D01*
D12*
%TO.C,R1*%
X132596102Y-109429084D02*
X132408626Y-109560318D01*
X132596102Y-109654056D02*
X132202401Y-109654056D01*
X132202401Y-109504075D01*
X132221149Y-109466579D01*
X132239897Y-109447832D01*
X132277392Y-109429084D01*
X132333635Y-109429084D01*
X132371130Y-109447832D01*
X132389878Y-109466579D01*
X132408626Y-109504075D01*
X132408626Y-109654056D01*
X132558607Y-109035383D02*
X132577355Y-109054131D01*
X132596102Y-109110374D01*
X132596102Y-109147869D01*
X132577355Y-109204112D01*
X132539859Y-109241607D01*
X132502364Y-109260355D01*
X132427373Y-109279103D01*
X132371130Y-109279103D01*
X132296140Y-109260355D01*
X132258644Y-109241607D01*
X132221149Y-109204112D01*
X132202401Y-109147869D01*
X132202401Y-109110374D01*
X132221149Y-109054131D01*
X132239897Y-109035383D01*
X132202401Y-108791663D02*
X132202401Y-108754168D01*
X132221149Y-108716673D01*
X132239897Y-108697925D01*
X132277392Y-108679177D01*
X132352383Y-108660430D01*
X132446121Y-108660430D01*
X132521112Y-108679177D01*
X132558607Y-108697925D01*
X132577355Y-108716673D01*
X132596102Y-108754168D01*
X132596102Y-108791663D01*
X132577355Y-108829159D01*
X132558607Y-108847906D01*
X132521112Y-108866654D01*
X132446121Y-108885402D01*
X132352383Y-108885402D01*
X132277392Y-108866654D01*
X132239897Y-108847906D01*
X132221149Y-108829159D01*
X132202401Y-108791663D01*
X132202401Y-108322972D02*
X132202401Y-108397962D01*
X132221149Y-108435458D01*
X132239897Y-108454205D01*
X132296140Y-108491701D01*
X132371130Y-108510448D01*
X132521112Y-108510448D01*
X132558607Y-108491701D01*
X132577355Y-108472953D01*
X132596102Y-108435458D01*
X132596102Y-108360467D01*
X132577355Y-108322972D01*
X132558607Y-108304224D01*
X132521112Y-108285476D01*
X132427373Y-108285476D01*
X132389878Y-108304224D01*
X132371130Y-108322972D01*
X132352383Y-108360467D01*
X132352383Y-108435458D01*
X132371130Y-108472953D01*
X132389878Y-108491701D01*
X132427373Y-108510448D01*
X132202401Y-108041757D02*
X132202401Y-108004261D01*
X132221149Y-107966766D01*
X132239897Y-107948018D01*
X132277392Y-107929271D01*
X132352383Y-107910523D01*
X132446121Y-107910523D01*
X132521112Y-107929271D01*
X132558607Y-107948018D01*
X132577355Y-107966766D01*
X132596102Y-108004261D01*
X132596102Y-108041757D01*
X132577355Y-108079252D01*
X132558607Y-108098000D01*
X132521112Y-108116747D01*
X132446121Y-108135495D01*
X132352383Y-108135495D01*
X132277392Y-108116747D01*
X132239897Y-108098000D01*
X132221149Y-108079252D01*
X132202401Y-108041757D01*
X132202401Y-107779289D02*
X132202401Y-107535570D01*
X132352383Y-107666803D01*
X132352383Y-107610560D01*
X132371130Y-107573065D01*
X132389878Y-107554317D01*
X132427373Y-107535570D01*
X132521112Y-107535570D01*
X132558607Y-107554317D01*
X132577355Y-107573065D01*
X132596102Y-107610560D01*
X132596102Y-107723046D01*
X132577355Y-107760542D01*
X132558607Y-107779289D01*
X132202401Y-107254355D02*
X132483616Y-107254355D01*
X132539859Y-107273102D01*
X132577355Y-107310598D01*
X132596102Y-107366841D01*
X132596102Y-107404336D01*
X132596102Y-106841906D02*
X132408626Y-106973140D01*
X132596102Y-107066878D02*
X132202401Y-107066878D01*
X132202401Y-106916897D01*
X132221149Y-106879401D01*
X132239897Y-106860654D01*
X132277392Y-106841906D01*
X132333635Y-106841906D01*
X132371130Y-106860654D01*
X132389878Y-106879401D01*
X132408626Y-106916897D01*
X132408626Y-107066878D01*
X132446121Y-106673177D02*
X132446121Y-106373214D01*
X132202401Y-106110747D02*
X132202401Y-106073252D01*
X132221149Y-106035756D01*
X132239897Y-106017009D01*
X132277392Y-105998261D01*
X132352383Y-105979513D01*
X132446121Y-105979513D01*
X132521112Y-105998261D01*
X132558607Y-106017009D01*
X132577355Y-106035756D01*
X132596102Y-106073252D01*
X132596102Y-106110747D01*
X132577355Y-106148242D01*
X132558607Y-106166990D01*
X132521112Y-106185738D01*
X132446121Y-106204485D01*
X132352383Y-106204485D01*
X132277392Y-106185738D01*
X132239897Y-106166990D01*
X132221149Y-106148242D01*
X132202401Y-106110747D01*
X132202401Y-105848280D02*
X132202401Y-105585812D01*
X132596102Y-105754541D01*
X132596102Y-105229607D02*
X132596102Y-105454579D01*
X132596102Y-105342093D02*
X132202401Y-105342093D01*
X132258644Y-105379588D01*
X132296140Y-105417083D01*
X132314887Y-105454579D01*
X132596102Y-105060878D02*
X132202401Y-105060878D01*
X132596102Y-104835906D02*
X132371130Y-105004635D01*
X132202401Y-104835906D02*
X132427373Y-105060878D01*
X132596102Y-104479700D02*
X132596102Y-104667177D01*
X132202401Y-104667177D01*
D11*
%TO.C,VR1*%
X125689069Y-94518029D02*
X125689069Y-93897499D01*
X126070934Y-94231630D01*
X126070934Y-94088431D01*
X126118667Y-93992965D01*
X126166400Y-93945232D01*
X126261866Y-93897499D01*
X126500531Y-93897499D01*
X126595997Y-93945232D01*
X126643730Y-93992965D01*
X126691463Y-94088431D01*
X126691463Y-94374830D01*
X126643730Y-94470296D01*
X126595997Y-94518029D01*
X125689069Y-93563368D02*
X125689069Y-92942838D01*
X126070934Y-93276970D01*
X126070934Y-93133770D01*
X126118667Y-93038304D01*
X126166400Y-92990571D01*
X126261866Y-92942838D01*
X126500531Y-92942838D01*
X126595997Y-92990571D01*
X126643730Y-93038304D01*
X126691463Y-93133770D01*
X126691463Y-93420169D01*
X126643730Y-93515635D01*
X126595997Y-93563368D01*
X125689069Y-92083643D02*
X125689069Y-92274576D01*
X125736803Y-92370042D01*
X125784536Y-92417775D01*
X125927735Y-92513241D01*
X126118667Y-92560974D01*
X126500531Y-92560974D01*
X126595997Y-92513241D01*
X126643730Y-92465508D01*
X126691463Y-92370042D01*
X126691463Y-92179109D01*
X126643730Y-92083643D01*
X126595997Y-92035910D01*
X126500531Y-91988177D01*
X126261866Y-91988177D01*
X126166400Y-92035910D01*
X126118667Y-92083643D01*
X126070934Y-92179109D01*
X126070934Y-92370042D01*
X126118667Y-92465508D01*
X126166400Y-92513241D01*
X126261866Y-92560974D01*
X125784536Y-91606313D02*
X125736803Y-91558580D01*
X125689069Y-91463114D01*
X125689069Y-91224448D01*
X125736803Y-91128982D01*
X125784536Y-91081249D01*
X125880002Y-91033516D01*
X125975468Y-91033516D01*
X126118667Y-91081249D01*
X126691463Y-91654046D01*
X126691463Y-91033516D01*
X126691463Y-90603919D02*
X125689069Y-90603919D01*
X125689069Y-90222054D01*
X125736803Y-90126588D01*
X125784536Y-90078855D01*
X125880002Y-90031122D01*
X126023201Y-90031122D01*
X126118667Y-90078855D01*
X126166400Y-90126588D01*
X126214133Y-90222054D01*
X126214133Y-90603919D01*
X126309599Y-89601525D02*
X126309599Y-88837796D01*
X126691463Y-87835402D02*
X126691463Y-88408199D01*
X126691463Y-88121800D02*
X125689069Y-88121800D01*
X125832269Y-88217266D01*
X125927735Y-88312733D01*
X125975468Y-88408199D01*
X126309599Y-87405805D02*
X126309599Y-86642076D01*
X126691463Y-85639682D02*
X126691463Y-86212478D01*
X126691463Y-85926080D02*
X125689069Y-85926080D01*
X125832269Y-86021546D01*
X125927735Y-86117012D01*
X125975468Y-86212478D01*
X125689069Y-85019152D02*
X125689069Y-84923686D01*
X125736803Y-84828220D01*
X125784536Y-84780487D01*
X125880002Y-84732754D01*
X126070934Y-84685021D01*
X126309599Y-84685021D01*
X126500531Y-84732754D01*
X126595997Y-84780487D01*
X126643730Y-84828220D01*
X126691463Y-84923686D01*
X126691463Y-85019152D01*
X126643730Y-85114618D01*
X126595997Y-85162351D01*
X126500531Y-85210084D01*
X126309599Y-85257818D01*
X126070934Y-85257818D01*
X125880002Y-85210084D01*
X125784536Y-85162351D01*
X125736803Y-85114618D01*
X125689069Y-85019152D01*
X125689069Y-84350890D02*
X125689069Y-83730360D01*
X126070934Y-84064491D01*
X126070934Y-83921292D01*
X126118667Y-83825826D01*
X126166400Y-83778093D01*
X126261866Y-83730360D01*
X126500531Y-83730360D01*
X126595997Y-83778093D01*
X126643730Y-83825826D01*
X126691463Y-83921292D01*
X126691463Y-84207690D01*
X126643730Y-84303157D01*
X126595997Y-84350890D01*
X126691463Y-82823432D02*
X126691463Y-83300763D01*
X125689069Y-83300763D01*
X126166400Y-82155169D02*
X126166400Y-82489301D01*
X126691463Y-82489301D02*
X125689069Y-82489301D01*
X125689069Y-82011970D01*
D13*
%TO.C,J2*%
X155448000Y-102235000D02*
X155448000Y-99695000D01*
X170688000Y-100330000D02*
X170688000Y-102235000D01*
X170053000Y-99695000D02*
X170688000Y-100330000D01*
X170688000Y-102235000D02*
X155448000Y-102235000D01*
X155448000Y-99695000D02*
X170053000Y-99695000D01*
D14*
%TO.C,R3*%
X147458000Y-88775000D02*
X145658000Y-88775000D01*
X147458000Y-87755000D02*
X145658000Y-87755000D01*
X145658000Y-88775000D02*
X145658000Y-87755000D01*
X147458000Y-88775000D02*
X147458000Y-87755000D01*
D13*
%TO.C,J1*%
X155448000Y-111760000D02*
X155448000Y-109855000D01*
X155448000Y-109855000D02*
X170688000Y-109855000D01*
X170688000Y-112395000D02*
X156083000Y-112395000D01*
X156083000Y-112395000D02*
X155448000Y-111760000D01*
X170688000Y-109855000D02*
X170688000Y-112395000D01*
D15*
%TO.C,D1*%
X150838000Y-82785000D02*
X150838000Y-83585000D01*
X152438000Y-83585000D02*
X152438000Y-82785000D01*
X150838000Y-83585000D02*
X152438000Y-83585000D01*
X152438000Y-82785000D02*
X150838000Y-82785000D01*
%TO.C,D2*%
X152438000Y-88665000D02*
X152438000Y-87865000D01*
X152438000Y-87865000D02*
X150838000Y-87865000D01*
X150838000Y-88665000D02*
X152438000Y-88665000D01*
X150838000Y-87865000D02*
X150838000Y-88665000D01*
D14*
%TO.C,R2*%
X147458000Y-83695000D02*
X145658000Y-83695000D01*
X145658000Y-83695000D02*
X145658000Y-82675000D01*
X147458000Y-83695000D02*
X147458000Y-82675000D01*
X147458000Y-82675000D02*
X145658000Y-82675000D01*
D13*
%TO.C,C1*%
X131951605Y-99762500D02*
X131951605Y-99262500D01*
X132201605Y-99512500D02*
X131701605Y-99512500D01*
X132568000Y-98425000D02*
G75*
G03*
X132568000Y-98425000I-2500000J0D01*
G01*
D14*
%TO.C,S2*%
X164298000Y-85815000D02*
X159298000Y-85815000D01*
X164298000Y-90715000D02*
X164298000Y-85815000D01*
X159298000Y-90715000D02*
X164298000Y-90715000D01*
X159298000Y-85815000D02*
X159298000Y-90715000D01*
D16*
X159998000Y-92915000D02*
G75*
G03*
X159998000Y-92915000I-100000J0D01*
G01*
D14*
%TO.C,S1*%
X171918000Y-85815000D02*
X166918000Y-85815000D01*
X166918000Y-90715000D02*
X171918000Y-90715000D01*
X171918000Y-90715000D02*
X171918000Y-85815000D01*
X166918000Y-85815000D02*
X166918000Y-90715000D01*
D16*
X167618000Y-92915000D02*
G75*
G03*
X167618000Y-92915000I-100000J0D01*
G01*
D14*
%TO.C,R1*%
X131828000Y-109485000D02*
X130808000Y-109485000D01*
X131828000Y-107685000D02*
X131828000Y-109485000D01*
X130808000Y-107685000D02*
X130808000Y-109485000D01*
X131828000Y-107685000D02*
X130808000Y-107685000D01*
%TO.C,VR1*%
X134618000Y-84735000D02*
X134618000Y-91735000D01*
X128018000Y-84735000D02*
X134618000Y-84735000D01*
X128018000Y-91735000D02*
X128018000Y-84735000D01*
X134618000Y-91735000D02*
X128018000Y-91735000D01*
%TD*%
D13*
X138124400Y-123672600D02*
X138124400Y-123977400D01*
X139751600Y-123672600D02*
X139751600Y-123977400D01*
X138124400Y-123977400D02*
G75*
G03*
X139751600Y-123977400I813600J0D01*
G01*
X139751600Y-123672600D02*
G75*
G03*
X138124400Y-123672600I-813600J0D01*
G01*
X140664400Y-123672600D02*
X140664400Y-123977400D01*
X142291600Y-123672600D02*
X142291600Y-123977400D01*
X140664400Y-123977400D02*
G75*
G03*
X142291600Y-123977400I813600J0D01*
G01*
X142291600Y-123672600D02*
G75*
G03*
X140664400Y-123672600I-813600J0D01*
G01*
X143204400Y-123672600D02*
X143204400Y-123977400D01*
X144831600Y-123672600D02*
X144831600Y-123977400D01*
X143204400Y-123977400D02*
G75*
G03*
X144831600Y-123977400I813600J0D01*
G01*
X144831600Y-123672600D02*
G75*
G03*
X143204400Y-123672600I-813600J0D01*
G01*
X145744400Y-123672600D02*
X145744400Y-123977400D01*
X147371600Y-123672600D02*
X147371600Y-123977400D01*
X145744400Y-123977400D02*
G75*
G03*
X147371600Y-123977400I813600J0D01*
G01*
X147371600Y-123672600D02*
G75*
G03*
X145744400Y-123672600I-813600J0D01*
G01*
X148284400Y-123672600D02*
X148284400Y-123977400D01*
X149911600Y-123672600D02*
X149911600Y-123977400D01*
X148284400Y-123977400D02*
G75*
G03*
X149911600Y-123977400I813600J0D01*
G01*
X149911600Y-123672600D02*
G75*
G03*
X148284400Y-123672600I-813600J0D01*
G01*
X150824400Y-123672600D02*
X150824400Y-123977400D01*
X152451600Y-123672600D02*
X152451600Y-123977400D01*
X150824400Y-123977400D02*
G75*
G03*
X152451600Y-123977400I813600J0D01*
G01*
X152451600Y-123672600D02*
G75*
G03*
X150824400Y-123672600I-813600J0D01*
G01*
X153364400Y-123672600D02*
X153364400Y-123977400D01*
X154991600Y-123672600D02*
X154991600Y-123977400D01*
X153364400Y-123977400D02*
G75*
G03*
X154991600Y-123977400I813600J0D01*
G01*
X154991600Y-123672600D02*
G75*
G03*
X153364400Y-123672600I-813600J0D01*
G01*
X155904400Y-123672600D02*
X155904400Y-123977400D01*
X157531600Y-123672600D02*
X157531600Y-123977400D01*
X155904400Y-123977400D02*
G75*
G03*
X157531600Y-123977400I813600J0D01*
G01*
X157531600Y-123672600D02*
G75*
G03*
X155904400Y-123672600I-813600J0D01*
G01*
X160984400Y-123672600D02*
X160984400Y-123977400D01*
X162611600Y-123672600D02*
X162611600Y-123977400D01*
X160984400Y-123977400D02*
G75*
G03*
X162611600Y-123977400I813600J0D01*
G01*
X162611600Y-123672600D02*
G75*
G03*
X160984400Y-123672600I-813600J0D01*
G01*
X163524400Y-123672600D02*
X163524400Y-123977400D01*
X165151600Y-123672600D02*
X165151600Y-123977400D01*
X163524400Y-123977400D02*
G75*
G03*
X165151600Y-123977400I813600J0D01*
G01*
X165151600Y-123672600D02*
G75*
G03*
X163524400Y-123672600I-813600J0D01*
G01*
X166064400Y-123672600D02*
X166064400Y-123977400D01*
X167691600Y-123672600D02*
X167691600Y-123977400D01*
X166064400Y-123977400D02*
G75*
G03*
X167691600Y-123977400I813600J0D01*
G01*
X167691600Y-123672600D02*
G75*
G03*
X166064400Y-123672600I-813600J0D01*
G01*
X168604400Y-123672600D02*
X168604400Y-123977400D01*
X170231600Y-123672600D02*
X170231600Y-123977400D01*
X168604400Y-123977400D02*
G75*
G03*
X170231600Y-123977400I813600J0D01*
G01*
X170231600Y-123672600D02*
G75*
G03*
X168604400Y-123672600I-813600J0D01*
G01*
X171144400Y-123672600D02*
X171144400Y-123977400D01*
X172771600Y-123672600D02*
X172771600Y-123977400D01*
X171144400Y-123977400D02*
G75*
G03*
X172771600Y-123977400I813600J0D01*
G01*
X172771600Y-123672600D02*
G75*
G03*
X171144400Y-123672600I-813600J0D01*
G01*
X173684400Y-123672600D02*
X173684400Y-123977400D01*
X175311600Y-123672600D02*
X175311600Y-123977400D01*
X173684400Y-123977400D02*
G75*
G03*
X175311600Y-123977400I813600J0D01*
G01*
X175311600Y-123672600D02*
G75*
G03*
X173684400Y-123672600I-813600J0D01*
G01*
X128980400Y-75412600D02*
X128980400Y-75717400D01*
X130607600Y-75412600D02*
X130607600Y-75717400D01*
X128980400Y-75717400D02*
G75*
G03*
X130607600Y-75717400I813600J0D01*
G01*
X130607600Y-75412600D02*
G75*
G03*
X128980400Y-75412600I-813600J0D01*
G01*
X131520400Y-75412600D02*
X131520400Y-75717400D01*
X133147600Y-75412600D02*
X133147600Y-75717400D01*
X131520400Y-75717400D02*
G75*
G03*
X133147600Y-75717400I813600J0D01*
G01*
X133147600Y-75412600D02*
G75*
G03*
X131520400Y-75412600I-813600J0D01*
G01*
X134060400Y-75412600D02*
X134060400Y-75717400D01*
X135687600Y-75412600D02*
X135687600Y-75717400D01*
X134060400Y-75717400D02*
G75*
G03*
X135687600Y-75717400I813600J0D01*
G01*
X135687600Y-75412600D02*
G75*
G03*
X134060400Y-75412600I-813600J0D01*
G01*
X136600400Y-75412600D02*
X136600400Y-75717400D01*
X138227600Y-75412600D02*
X138227600Y-75717400D01*
X136600400Y-75717400D02*
G75*
G03*
X138227600Y-75717400I813600J0D01*
G01*
X138227600Y-75412600D02*
G75*
G03*
X136600400Y-75412600I-813600J0D01*
G01*
X139140400Y-75412600D02*
X139140400Y-75717400D01*
X140767600Y-75412600D02*
X140767600Y-75717400D01*
X139140400Y-75717400D02*
G75*
G03*
X140767600Y-75717400I813600J0D01*
G01*
X140767600Y-75412600D02*
G75*
G03*
X139140400Y-75412600I-813600J0D01*
G01*
X141680400Y-75412600D02*
X141680400Y-75717400D01*
X143307600Y-75412600D02*
X143307600Y-75717400D01*
X141680400Y-75717400D02*
G75*
G03*
X143307600Y-75717400I813600J0D01*
G01*
X143307600Y-75412600D02*
G75*
G03*
X141680400Y-75412600I-813600J0D01*
G01*
X144220400Y-75412600D02*
X144220400Y-75717400D01*
X145847600Y-75412600D02*
X145847600Y-75717400D01*
X144220400Y-75717400D02*
G75*
G03*
X145847600Y-75717400I813600J0D01*
G01*
X145847600Y-75412600D02*
G75*
G03*
X144220400Y-75412600I-813600J0D01*
G01*
X146760400Y-75412600D02*
X146760400Y-75717400D01*
X148387600Y-75412600D02*
X148387600Y-75717400D01*
X146760400Y-75717400D02*
G75*
G03*
X148387600Y-75717400I813600J0D01*
G01*
X148387600Y-75412600D02*
G75*
G03*
X146760400Y-75412600I-813600J0D01*
G01*
X149300400Y-75412600D02*
X149300400Y-75717400D01*
X150927600Y-75412600D02*
X150927600Y-75717400D01*
X149300400Y-75717400D02*
G75*
G03*
X150927600Y-75717400I813600J0D01*
G01*
X150927600Y-75412600D02*
G75*
G03*
X149300400Y-75412600I-813600J0D01*
G01*
X151840400Y-75412600D02*
X151840400Y-75717400D01*
X153467600Y-75412600D02*
X153467600Y-75717400D01*
X151840400Y-75717400D02*
G75*
G03*
X153467600Y-75717400I813600J0D01*
G01*
X153467600Y-75412600D02*
G75*
G03*
X151840400Y-75412600I-813600J0D01*
G01*
X155904400Y-75412600D02*
X155904400Y-75717400D01*
X157531600Y-75412600D02*
X157531600Y-75717400D01*
X155904400Y-75717400D02*
G75*
G03*
X157531600Y-75717400I813600J0D01*
G01*
X157531600Y-75412600D02*
G75*
G03*
X155904400Y-75412600I-813600J0D01*
G01*
X158444400Y-75412600D02*
X158444400Y-75717400D01*
X160071600Y-75412600D02*
X160071600Y-75717400D01*
X158444400Y-75717400D02*
G75*
G03*
X160071600Y-75717400I813600J0D01*
G01*
X160071600Y-75412600D02*
G75*
G03*
X158444400Y-75412600I-813600J0D01*
G01*
X160984400Y-75412600D02*
X160984400Y-75717400D01*
X162611600Y-75412600D02*
X162611600Y-75717400D01*
X160984400Y-75717400D02*
G75*
G03*
X162611600Y-75717400I813600J0D01*
G01*
X162611600Y-75412600D02*
G75*
G03*
X160984400Y-75412600I-813600J0D01*
G01*
X163524400Y-75412600D02*
X163524400Y-75717400D01*
X165151600Y-75412600D02*
X165151600Y-75717400D01*
X163524400Y-75717400D02*
G75*
G03*
X165151600Y-75717400I813600J0D01*
G01*
X165151600Y-75412600D02*
G75*
G03*
X163524400Y-75412600I-813600J0D01*
G01*
X166064400Y-75412600D02*
X166064400Y-75717400D01*
X167691600Y-75412600D02*
X167691600Y-75717400D01*
X166064400Y-75717400D02*
G75*
G03*
X167691600Y-75717400I813600J0D01*
G01*
X167691600Y-75412600D02*
G75*
G03*
X166064400Y-75412600I-813600J0D01*
G01*
X168604400Y-75412600D02*
X168604400Y-75717400D01*
X170231600Y-75412600D02*
X170231600Y-75717400D01*
X168604400Y-75717400D02*
G75*
G03*
X170231600Y-75717400I813600J0D01*
G01*
X170231600Y-75412600D02*
G75*
G03*
X168604400Y-75412600I-813600J0D01*
G01*
X171144400Y-75412600D02*
X171144400Y-75717400D01*
X172771600Y-75412600D02*
X172771600Y-75717400D01*
X171144400Y-75717400D02*
G75*
G03*
X172771600Y-75717400I813600J0D01*
G01*
X172771600Y-75412600D02*
G75*
G03*
X171144400Y-75412600I-813600J0D01*
G01*
X173684400Y-75412600D02*
X173684400Y-75717400D01*
X175311600Y-75412600D02*
X175311600Y-75717400D01*
X173684400Y-75717400D02*
G75*
G03*
X175311600Y-75717400I813600J0D01*
G01*
X175311600Y-75412600D02*
G75*
G03*
X173684400Y-75412600I-813600J0D01*
G01*
%TO.C,P5*%
X126950000Y-123825000D02*
G75*
G03*
X126950000Y-123825000I-1982000J0D01*
G01*
%TD*%
%TO.C,P6*%
X179020000Y-118745000D02*
G75*
G03*
X179020000Y-118745000I-1982000J0D01*
G01*
%TD*%
%TO.C,P7*%
X125680000Y-78105000D02*
G75*
G03*
X125680000Y-78105000I-1982000J0D01*
G01*
%TD*%
%TO.C,P8*%
X179020000Y-90805000D02*
G75*
G03*
X179020000Y-90805000I-1982000J0D01*
G01*
%TD*%
%TO.C,J2*%
X168618000Y-100165000D02*
X168618000Y-101765000D01*
X170218000Y-101765000D01*
X170218000Y-100165000D01*
X168618000Y-100165000D01*
X166878000Y-100165000D02*
X166878000Y-100165000D01*
X166878000Y-101765000D02*
X166878000Y-101765000D01*
X166878000Y-100165000D02*
G75*
G03*
X166878000Y-101765000I0J-800000D01*
G01*
X166878000Y-101765000D02*
G75*
G03*
X166878000Y-100165000I0J800000D01*
G01*
X164338000Y-100165000D02*
X164338000Y-100165000D01*
X164338000Y-101765000D02*
X164338000Y-101765000D01*
X164338000Y-100165000D02*
G75*
G03*
X164338000Y-101765000I0J-800000D01*
G01*
X164338000Y-101765000D02*
G75*
G03*
X164338000Y-100165000I0J800000D01*
G01*
X161798000Y-100165000D02*
X161798000Y-100165000D01*
X161798000Y-101765000D02*
X161798000Y-101765000D01*
X161798000Y-100165000D02*
G75*
G03*
X161798000Y-101765000I0J-800000D01*
G01*
X161798000Y-101765000D02*
G75*
G03*
X161798000Y-100165000I0J800000D01*
G01*
X159258000Y-100165000D02*
X159258000Y-100165000D01*
X159258000Y-101765000D02*
X159258000Y-101765000D01*
X159258000Y-100165000D02*
G75*
G03*
X159258000Y-101765000I0J-800000D01*
G01*
X159258000Y-101765000D02*
G75*
G03*
X159258000Y-100165000I0J800000D01*
G01*
X156718000Y-100165000D02*
X156718000Y-100165000D01*
X156718000Y-101765000D02*
X156718000Y-101765000D01*
X156718000Y-100165000D02*
G75*
G03*
X156718000Y-101765000I0J-800000D01*
G01*
X156718000Y-101765000D02*
G75*
G03*
X156718000Y-100165000I0J800000D01*
G01*
%TD*%
%TO.C,R3*%
X145353000Y-87805000D02*
X145353000Y-88725000D01*
X146293000Y-88725000D01*
X146293000Y-87805000D01*
X145353000Y-87805000D01*
X146823000Y-87805000D02*
X146823000Y-88725000D01*
X147763000Y-88725000D01*
X147763000Y-87805000D01*
X146823000Y-87805000D01*
%TD*%
%TO.C,J1*%
X155918000Y-110325000D02*
X155918000Y-111925000D01*
X157518000Y-111925000D01*
X157518000Y-110325000D01*
X155918000Y-110325000D01*
X159258000Y-111925000D02*
X159258000Y-111925000D01*
X159258000Y-110325000D02*
X159258000Y-110325000D01*
X159258000Y-111925000D02*
G75*
G03*
X159258000Y-110325000I0J800000D01*
G01*
X159258000Y-110325000D02*
G75*
G03*
X159258000Y-111925000I0J-800000D01*
G01*
X161798000Y-111925000D02*
X161798000Y-111925000D01*
X161798000Y-110325000D02*
X161798000Y-110325000D01*
X161798000Y-111925000D02*
G75*
G03*
X161798000Y-110325000I0J800000D01*
G01*
X161798000Y-110325000D02*
G75*
G03*
X161798000Y-111925000I0J-800000D01*
G01*
X164338000Y-111925000D02*
X164338000Y-111925000D01*
X164338000Y-110325000D02*
X164338000Y-110325000D01*
X164338000Y-111925000D02*
G75*
G03*
X164338000Y-110325000I0J800000D01*
G01*
X164338000Y-110325000D02*
G75*
G03*
X164338000Y-111925000I0J-800000D01*
G01*
X166878000Y-111925000D02*
X166878000Y-111925000D01*
X166878000Y-110325000D02*
X166878000Y-110325000D01*
X166878000Y-111925000D02*
G75*
G03*
X166878000Y-110325000I0J800000D01*
G01*
X166878000Y-110325000D02*
G75*
G03*
X166878000Y-111925000I0J-800000D01*
G01*
X169418000Y-111925000D02*
X169418000Y-111925000D01*
X169418000Y-110325000D02*
X169418000Y-110325000D01*
X169418000Y-111925000D02*
G75*
G03*
X169418000Y-110325000I0J800000D01*
G01*
X169418000Y-110325000D02*
G75*
G03*
X169418000Y-111925000I0J-800000D01*
G01*
%TD*%
%TO.C,D1*%
X152088000Y-82835000D02*
X152088000Y-83535000D01*
X152588000Y-83535000D01*
X152588000Y-82835000D01*
X152088000Y-82835000D01*
X150688000Y-82835000D02*
X150688000Y-83535000D01*
X151188000Y-83535000D01*
X151188000Y-82835000D01*
X150688000Y-82835000D01*
%TD*%
%TO.C,D2*%
X152088000Y-87915000D02*
X152088000Y-88615000D01*
X152588000Y-88615000D01*
X152588000Y-87915000D01*
X152088000Y-87915000D01*
X150688000Y-87915000D02*
X150688000Y-88615000D01*
X151188000Y-88615000D01*
X151188000Y-87915000D01*
X150688000Y-87915000D01*
%TD*%
%TO.C,R2*%
X145353000Y-82725000D02*
X145353000Y-83645000D01*
X146293000Y-83645000D01*
X146293000Y-82725000D01*
X145353000Y-82725000D01*
X146823000Y-82725000D02*
X146823000Y-83645000D01*
X147763000Y-83645000D01*
X147763000Y-82725000D01*
X146823000Y-82725000D01*
%TD*%
%TO.C,C1*%
X130568000Y-97675000D02*
X130568000Y-99175000D01*
X132068000Y-99175000D01*
X132068000Y-97675000D01*
X130568000Y-97675000D01*
X129568000Y-98425000D02*
G75*
G03*
X129568000Y-98425000I-750000J0D01*
G01*
%TD*%
%TO.C,S2*%
X159448000Y-90615000D02*
X159448000Y-92215000D01*
X160348000Y-92215000D01*
X160348000Y-90615000D01*
X159448000Y-90615000D01*
X159448000Y-84315000D02*
X159448000Y-85915000D01*
X160348000Y-85915000D01*
X160348000Y-84315000D01*
X159448000Y-84315000D01*
X163248000Y-90615000D02*
X163248000Y-92215000D01*
X164148000Y-92215000D01*
X164148000Y-90615000D01*
X163248000Y-90615000D01*
X163248000Y-84315000D02*
X163248000Y-85915000D01*
X164148000Y-85915000D01*
X164148000Y-84315000D01*
X163248000Y-84315000D01*
%TD*%
%TO.C,S1*%
X167068000Y-90615000D02*
X167068000Y-92215000D01*
X167968000Y-92215000D01*
X167968000Y-90615000D01*
X167068000Y-90615000D01*
X167068000Y-84315000D02*
X167068000Y-85915000D01*
X167968000Y-85915000D01*
X167968000Y-84315000D01*
X167068000Y-84315000D01*
X170868000Y-90615000D02*
X170868000Y-92215000D01*
X171768000Y-92215000D01*
X171768000Y-90615000D01*
X170868000Y-90615000D01*
X170868000Y-84315000D02*
X170868000Y-85915000D01*
X171768000Y-85915000D01*
X171768000Y-84315000D01*
X170868000Y-84315000D01*
%TD*%
%TO.C,R1*%
X130858000Y-108850000D02*
X130858000Y-109790000D01*
X131778000Y-109790000D01*
X131778000Y-108850000D01*
X130858000Y-108850000D01*
X130858000Y-107380000D02*
X130858000Y-108320000D01*
X131778000Y-108320000D01*
X131778000Y-107380000D01*
X130858000Y-107380000D01*
%TD*%
%TO.C,VR1*%
X133297000Y-87704000D02*
X133297000Y-88826000D01*
X134419000Y-88826000D01*
X134419000Y-87704000D01*
X133297000Y-87704000D01*
X131879000Y-90805000D02*
G75*
G03*
X131879000Y-90805000I-561000J0D01*
G01*
X129339000Y-88265000D02*
G75*
G03*
X129339000Y-88265000I-561000J0D01*
G01*
%TD*%
M02*
