M48
; DRILL file {KiCad (6.0.2-0)} date Saturday, May 07, 2022 at 10:26:39 PM
; FORMAT={-:-/ absolute / inch / decimal}
; #@! TF.CreationDate,2022-05-07T22:26:39-07:00
; #@! TF.GenerationSoftware,Kicad,Pcbnew,(6.0.2-0)
; #@! TF.FileFunction,Plated,1,2,PTH
FMAT,2
INCH
; #@! TA.AperFunction,Plated,PTH,ViaDrill
T1C0.0157
; #@! TA.AperFunction,Plated,PTH,ComponentDrill
T2C0.0281
; #@! TA.AperFunction,Plated,PTH,ComponentDrill
T3C0.0315
; #@! TA.AperFunction,Plated,PTH,ComponentDrill
T4C0.0394
; #@! TA.AperFunction,Plated,PTH,ComponentDrill
T5C0.0400
; #@! TA.AperFunction,Plated,PTH,ComponentDrill
T6C0.1200
%
G90
G05
T1
X5.07Y-3.175
X5.07Y-4.175
X5.17Y-3.075
X5.37Y-3.775
X5.87Y-4.375
X6.07Y-4.675
X6.17Y-4.675
X6.47Y-4.075
X6.57Y-4.675
X6.97Y-4.375
T2
X5.07Y-3.475
X5.17Y-3.575
X5.27Y-3.475
T3
X5.0716Y-3.875
X5.17Y-3.875
T4
X6.17Y-3.975
X6.17Y-4.375
X6.27Y-3.975
X6.27Y-4.375
X6.37Y-3.975
X6.37Y-4.375
X6.47Y-3.975
X6.47Y-4.375
X6.57Y-3.975
X6.57Y-4.375
X6.67Y-3.975
X6.67Y-4.375
T5
X5.11Y-2.975
X5.21Y-2.975
X5.31Y-2.975
X5.41Y-2.975
X5.47Y-4.875
X5.51Y-2.975
X5.57Y-4.875
X5.61Y-2.975
X5.67Y-4.875
X5.71Y-2.975
X5.77Y-4.875
X5.81Y-2.975
X5.87Y-4.875
X5.91Y-2.975
X5.97Y-4.875
X6.01Y-2.975
X6.07Y-4.875
X6.17Y-2.975
X6.17Y-4.875
X6.27Y-2.975
X6.37Y-2.975
X6.37Y-4.875
X6.47Y-2.975
X6.47Y-4.875
X6.57Y-2.975
X6.57Y-4.875
X6.67Y-2.975
X6.67Y-4.875
X6.77Y-2.975
X6.77Y-4.875
X6.87Y-2.975
X6.87Y-4.875
T6
X4.87Y-3.075
X4.92Y-4.875
X6.97Y-3.575
X6.97Y-4.675
T0
M30
