%TF.GenerationSoftware,KiCad,Pcbnew,(6.0.2-0)*%
%TF.CreationDate,2022-05-07T22:26:20-07:00*%
%TF.ProjectId,cpe301d_kicad_David_Nakasone,63706533-3031-4645-9f6b-696361645f44,rev?*%
%TF.SameCoordinates,Original*%
%TF.FileFunction,Legend,Top*%
%TF.FilePolarity,Positive*%
%FSLAX46Y46*%
G04 Gerber Fmt 4.6, Leading zero omitted, Abs format (unit mm)*
G04 Created by KiCad (PCBNEW (6.0.2-0)) date 2022-05-07 22:26:20*
%MOMM*%
%LPD*%
G01*
G04 APERTURE LIST*
%ADD10C,0.150000*%
%TA.AperFunction,Profile*%
%ADD11C,0.150000*%
%TD*%
%ADD12C,0.098425*%
%ADD13C,0.127000*%
%ADD14C,0.200000*%
%ADD15C,0.120000*%
%ADD16O,1.727200X2.032000*%
%ADD17C,4.064000*%
G04 APERTURE END LIST*
D10*
X118170142Y-109147857D02*
X118217761Y-109195476D01*
X118265380Y-109338333D01*
X118265380Y-109433571D01*
X118217761Y-109576428D01*
X118122523Y-109671666D01*
X118027285Y-109719285D01*
X117836809Y-109766904D01*
X117693952Y-109766904D01*
X117503476Y-109719285D01*
X117408238Y-109671666D01*
X117313000Y-109576428D01*
X117265380Y-109433571D01*
X117265380Y-109338333D01*
X117313000Y-109195476D01*
X117360619Y-109147857D01*
X118265380Y-108719285D02*
X117265380Y-108719285D01*
X117265380Y-108338333D01*
X117313000Y-108243095D01*
X117360619Y-108195476D01*
X117455857Y-108147857D01*
X117598714Y-108147857D01*
X117693952Y-108195476D01*
X117741571Y-108243095D01*
X117789190Y-108338333D01*
X117789190Y-108719285D01*
X117741571Y-107719285D02*
X117741571Y-107385952D01*
X118265380Y-107243095D02*
X118265380Y-107719285D01*
X117265380Y-107719285D01*
X117265380Y-107243095D01*
X117265380Y-106909761D02*
X117265380Y-106290714D01*
X117646333Y-106624047D01*
X117646333Y-106481190D01*
X117693952Y-106385952D01*
X117741571Y-106338333D01*
X117836809Y-106290714D01*
X118074904Y-106290714D01*
X118170142Y-106338333D01*
X118217761Y-106385952D01*
X118265380Y-106481190D01*
X118265380Y-106766904D01*
X118217761Y-106862142D01*
X118170142Y-106909761D01*
X117265380Y-105671666D02*
X117265380Y-105576428D01*
X117313000Y-105481190D01*
X117360619Y-105433571D01*
X117455857Y-105385952D01*
X117646333Y-105338333D01*
X117884428Y-105338333D01*
X118074904Y-105385952D01*
X118170142Y-105433571D01*
X118217761Y-105481190D01*
X118265380Y-105576428D01*
X118265380Y-105671666D01*
X118217761Y-105766904D01*
X118170142Y-105814523D01*
X118074904Y-105862142D01*
X117884428Y-105909761D01*
X117646333Y-105909761D01*
X117455857Y-105862142D01*
X117360619Y-105814523D01*
X117313000Y-105766904D01*
X117265380Y-105671666D01*
X118265380Y-104385952D02*
X118265380Y-104957380D01*
X118265380Y-104671666D02*
X117265380Y-104671666D01*
X117408238Y-104766904D01*
X117503476Y-104862142D01*
X117551095Y-104957380D01*
X118265380Y-103957380D02*
X117265380Y-103957380D01*
X117265380Y-103719285D01*
X117313000Y-103576428D01*
X117408238Y-103481190D01*
X117503476Y-103433571D01*
X117693952Y-103385952D01*
X117836809Y-103385952D01*
X118027285Y-103433571D01*
X118122523Y-103481190D01*
X118217761Y-103576428D01*
X118265380Y-103719285D01*
X118265380Y-103957380D01*
X118217761Y-102243095D02*
X118265380Y-102100238D01*
X118265380Y-101862142D01*
X118217761Y-101766904D01*
X118170142Y-101719285D01*
X118074904Y-101671666D01*
X117979666Y-101671666D01*
X117884428Y-101719285D01*
X117836809Y-101766904D01*
X117789190Y-101862142D01*
X117741571Y-102052619D01*
X117693952Y-102147857D01*
X117646333Y-102195476D01*
X117551095Y-102243095D01*
X117455857Y-102243095D01*
X117360619Y-102195476D01*
X117313000Y-102147857D01*
X117265380Y-102052619D01*
X117265380Y-101814523D01*
X117313000Y-101671666D01*
X118265380Y-101243095D02*
X117265380Y-101243095D01*
X118265380Y-100814523D02*
X117741571Y-100814523D01*
X117646333Y-100862142D01*
X117598714Y-100957380D01*
X117598714Y-101100238D01*
X117646333Y-101195476D01*
X117693952Y-101243095D01*
X118265380Y-100338333D02*
X117598714Y-100338333D01*
X117265380Y-100338333D02*
X117313000Y-100385952D01*
X117360619Y-100338333D01*
X117313000Y-100290714D01*
X117265380Y-100338333D01*
X117360619Y-100338333D01*
X118217761Y-99481190D02*
X118265380Y-99576428D01*
X118265380Y-99766904D01*
X118217761Y-99862142D01*
X118122523Y-99909761D01*
X117741571Y-99909761D01*
X117646333Y-99862142D01*
X117598714Y-99766904D01*
X117598714Y-99576428D01*
X117646333Y-99481190D01*
X117741571Y-99433571D01*
X117836809Y-99433571D01*
X117932047Y-99909761D01*
X118265380Y-98862142D02*
X118217761Y-98957380D01*
X118122523Y-99005000D01*
X117265380Y-99005000D01*
X118265380Y-98052619D02*
X117265380Y-98052619D01*
X118217761Y-98052619D02*
X118265380Y-98147857D01*
X118265380Y-98338333D01*
X118217761Y-98433571D01*
X118170142Y-98481190D01*
X118074904Y-98528809D01*
X117789190Y-98528809D01*
X117693952Y-98481190D01*
X117646333Y-98433571D01*
X117598714Y-98338333D01*
X117598714Y-98147857D01*
X117646333Y-98052619D01*
X119208714Y-107266904D02*
X119208714Y-106885952D01*
X119875380Y-107124047D02*
X119018238Y-107124047D01*
X118923000Y-107076428D01*
X118875380Y-106981190D01*
X118875380Y-106885952D01*
X119875380Y-106409761D02*
X119827761Y-106505000D01*
X119780142Y-106552619D01*
X119684904Y-106600238D01*
X119399190Y-106600238D01*
X119303952Y-106552619D01*
X119256333Y-106505000D01*
X119208714Y-106409761D01*
X119208714Y-106266904D01*
X119256333Y-106171666D01*
X119303952Y-106124047D01*
X119399190Y-106076428D01*
X119684904Y-106076428D01*
X119780142Y-106124047D01*
X119827761Y-106171666D01*
X119875380Y-106266904D01*
X119875380Y-106409761D01*
X119875380Y-105647857D02*
X119208714Y-105647857D01*
X119399190Y-105647857D02*
X119303952Y-105600238D01*
X119256333Y-105552619D01*
X119208714Y-105457380D01*
X119208714Y-105362142D01*
X118875380Y-104362142D02*
X118875380Y-103743095D01*
X119256333Y-104076428D01*
X119256333Y-103933571D01*
X119303952Y-103838333D01*
X119351571Y-103790714D01*
X119446809Y-103743095D01*
X119684904Y-103743095D01*
X119780142Y-103790714D01*
X119827761Y-103838333D01*
X119875380Y-103933571D01*
X119875380Y-104219285D01*
X119827761Y-104314523D01*
X119780142Y-104362142D01*
X118970619Y-103362142D02*
X118923000Y-103314523D01*
X118875380Y-103219285D01*
X118875380Y-102981190D01*
X118923000Y-102885952D01*
X118970619Y-102838333D01*
X119065857Y-102790714D01*
X119161095Y-102790714D01*
X119303952Y-102838333D01*
X119875380Y-103409761D01*
X119875380Y-102790714D01*
X119303952Y-102219285D02*
X119256333Y-102314523D01*
X119208714Y-102362142D01*
X119113476Y-102409761D01*
X119065857Y-102409761D01*
X118970619Y-102362142D01*
X118923000Y-102314523D01*
X118875380Y-102219285D01*
X118875380Y-102028809D01*
X118923000Y-101933571D01*
X118970619Y-101885952D01*
X119065857Y-101838333D01*
X119113476Y-101838333D01*
X119208714Y-101885952D01*
X119256333Y-101933571D01*
X119303952Y-102028809D01*
X119303952Y-102219285D01*
X119351571Y-102314523D01*
X119399190Y-102362142D01*
X119494428Y-102409761D01*
X119684904Y-102409761D01*
X119780142Y-102362142D01*
X119827761Y-102314523D01*
X119875380Y-102219285D01*
X119875380Y-102028809D01*
X119827761Y-101933571D01*
X119780142Y-101885952D01*
X119684904Y-101838333D01*
X119494428Y-101838333D01*
X119399190Y-101885952D01*
X119351571Y-101933571D01*
X119303952Y-102028809D01*
X119875380Y-101409761D02*
X118875380Y-101409761D01*
X118875380Y-101028809D01*
X118923000Y-100933571D01*
X118970619Y-100885952D01*
X119065857Y-100838333D01*
X119208714Y-100838333D01*
X119303952Y-100885952D01*
X119351571Y-100933571D01*
X119399190Y-101028809D01*
X119399190Y-101409761D01*
X119351571Y-100076428D02*
X119399190Y-99933571D01*
X119446809Y-99885952D01*
X119542047Y-99838333D01*
X119684904Y-99838333D01*
X119780142Y-99885952D01*
X119827761Y-99933571D01*
X119875380Y-100028809D01*
X119875380Y-100409761D01*
X118875380Y-100409761D01*
X118875380Y-100076428D01*
X118923000Y-99981190D01*
X118970619Y-99933571D01*
X119065857Y-99885952D01*
X119161095Y-99885952D01*
X119256333Y-99933571D01*
X119303952Y-99981190D01*
X119351571Y-100076428D01*
X119351571Y-100409761D01*
D11*
X179578000Y-88519000D02*
X177038000Y-85979000D01*
X177038000Y-126365000D02*
X177038000Y-123825000D01*
X177038000Y-74549000D02*
X175514000Y-73025000D01*
X177038000Y-123825000D02*
X179578000Y-121285000D01*
X110998000Y-73025000D02*
X110998000Y-126365000D01*
X179578000Y-121285000D02*
X179578000Y-88519000D01*
X110998000Y-126365000D02*
X177038000Y-126365000D01*
X175514000Y-73025000D02*
X110998000Y-73025000D01*
X177038000Y-85979000D02*
X177038000Y-74549000D01*
D10*
X139390380Y-120999285D02*
X139390380Y-121570714D01*
X139390380Y-121285000D02*
X138390380Y-121285000D01*
X138533238Y-121380238D01*
X138628476Y-121475476D01*
X138676095Y-121570714D01*
%TO.C,VR1*%
X129829397Y-92363661D02*
X130163649Y-93366417D01*
X130497901Y-92363661D01*
X131405156Y-93366417D02*
X131070904Y-92888914D01*
X130832153Y-93366417D02*
X130832153Y-92363661D01*
X131214155Y-92363661D01*
X131309656Y-92411412D01*
X131357406Y-92459162D01*
X131405156Y-92554662D01*
X131405156Y-92697913D01*
X131357406Y-92793414D01*
X131309656Y-92841164D01*
X131214155Y-92888914D01*
X130832153Y-92888914D01*
X132360162Y-93366417D02*
X131787158Y-93366417D01*
X132073660Y-93366417D02*
X132073660Y-92363661D01*
X131978160Y-92506912D01*
X131882659Y-92602413D01*
X131787158Y-92650163D01*
%TO.C,S2*%
X158650647Y-89120619D02*
X158681123Y-89029190D01*
X158681123Y-88876809D01*
X158650647Y-88815857D01*
X158620171Y-88785380D01*
X158559219Y-88754904D01*
X158498266Y-88754904D01*
X158437314Y-88785380D01*
X158406838Y-88815857D01*
X158376361Y-88876809D01*
X158345885Y-88998714D01*
X158315409Y-89059666D01*
X158284933Y-89090142D01*
X158223980Y-89120619D01*
X158163028Y-89120619D01*
X158102076Y-89090142D01*
X158071600Y-89059666D01*
X158041123Y-88998714D01*
X158041123Y-88846333D01*
X158071600Y-88754904D01*
X158102076Y-88511095D02*
X158071600Y-88480619D01*
X158041123Y-88419666D01*
X158041123Y-88267285D01*
X158071600Y-88206333D01*
X158102076Y-88175857D01*
X158163028Y-88145380D01*
X158223980Y-88145380D01*
X158315409Y-88175857D01*
X158681123Y-88541571D01*
X158681123Y-88145380D01*
%TO.C,S1*%
X166270647Y-89120619D02*
X166301123Y-89029190D01*
X166301123Y-88876809D01*
X166270647Y-88815857D01*
X166240171Y-88785380D01*
X166179219Y-88754904D01*
X166118266Y-88754904D01*
X166057314Y-88785380D01*
X166026838Y-88815857D01*
X165996361Y-88876809D01*
X165965885Y-88998714D01*
X165935409Y-89059666D01*
X165904933Y-89090142D01*
X165843980Y-89120619D01*
X165783028Y-89120619D01*
X165722076Y-89090142D01*
X165691600Y-89059666D01*
X165661123Y-88998714D01*
X165661123Y-88846333D01*
X165691600Y-88754904D01*
X166301123Y-88145380D02*
X166301123Y-88511095D01*
X166301123Y-88328238D02*
X165661123Y-88328238D01*
X165752552Y-88389190D01*
X165813504Y-88450142D01*
X165843980Y-88511095D01*
D12*
%TO.C,R3*%
X146232383Y-87343102D02*
X146101149Y-87155626D01*
X146007411Y-87343102D02*
X146007411Y-86949401D01*
X146157392Y-86949401D01*
X146194887Y-86968149D01*
X146213635Y-86986897D01*
X146232383Y-87024392D01*
X146232383Y-87080635D01*
X146213635Y-87118130D01*
X146194887Y-87136878D01*
X146157392Y-87155626D01*
X146007411Y-87155626D01*
X146363616Y-86949401D02*
X146607336Y-86949401D01*
X146476102Y-87099383D01*
X146532345Y-87099383D01*
X146569841Y-87118130D01*
X146588588Y-87136878D01*
X146607336Y-87174373D01*
X146607336Y-87268112D01*
X146588588Y-87305607D01*
X146569841Y-87324355D01*
X146532345Y-87343102D01*
X146419859Y-87343102D01*
X146382364Y-87324355D01*
X146363616Y-87305607D01*
%TO.C,R2*%
X146232383Y-82263102D02*
X146101149Y-82075626D01*
X146007411Y-82263102D02*
X146007411Y-81869401D01*
X146157392Y-81869401D01*
X146194887Y-81888149D01*
X146213635Y-81906897D01*
X146232383Y-81944392D01*
X146232383Y-82000635D01*
X146213635Y-82038130D01*
X146194887Y-82056878D01*
X146157392Y-82075626D01*
X146007411Y-82075626D01*
X146382364Y-81906897D02*
X146401112Y-81888149D01*
X146438607Y-81869401D01*
X146532345Y-81869401D01*
X146569841Y-81888149D01*
X146588588Y-81906897D01*
X146607336Y-81944392D01*
X146607336Y-81981887D01*
X146588588Y-82038130D01*
X146363616Y-82263102D01*
X146607336Y-82263102D01*
%TO.C,R1*%
X130396102Y-108910616D02*
X130208626Y-109041850D01*
X130396102Y-109135588D02*
X130002401Y-109135588D01*
X130002401Y-108985607D01*
X130021149Y-108948112D01*
X130039897Y-108929364D01*
X130077392Y-108910616D01*
X130133635Y-108910616D01*
X130171130Y-108929364D01*
X130189878Y-108948112D01*
X130208626Y-108985607D01*
X130208626Y-109135588D01*
X130396102Y-108535663D02*
X130396102Y-108760635D01*
X130396102Y-108648149D02*
X130002401Y-108648149D01*
X130058644Y-108685644D01*
X130096140Y-108723140D01*
X130114887Y-108760635D01*
D10*
%TO.C,J2*%
X171200380Y-101298333D02*
X171914666Y-101298333D01*
X172057523Y-101345952D01*
X172152761Y-101441190D01*
X172200380Y-101584047D01*
X172200380Y-101679285D01*
X171295619Y-100869761D02*
X171248000Y-100822142D01*
X171200380Y-100726904D01*
X171200380Y-100488809D01*
X171248000Y-100393571D01*
X171295619Y-100345952D01*
X171390857Y-100298333D01*
X171486095Y-100298333D01*
X171628952Y-100345952D01*
X172200380Y-100917380D01*
X172200380Y-100298333D01*
%TO.C,J1*%
X153840380Y-111458333D02*
X154554666Y-111458333D01*
X154697523Y-111505952D01*
X154792761Y-111601190D01*
X154840380Y-111744047D01*
X154840380Y-111839285D01*
X154840380Y-110458333D02*
X154840380Y-111029761D01*
X154840380Y-110744047D02*
X153840380Y-110744047D01*
X153983238Y-110839285D01*
X154078476Y-110934523D01*
X154126095Y-111029761D01*
%TO.C,D2*%
X150899904Y-90917380D02*
X150899904Y-89917380D01*
X151138000Y-89917380D01*
X151280857Y-89965000D01*
X151376095Y-90060238D01*
X151423714Y-90155476D01*
X151471333Y-90345952D01*
X151471333Y-90488809D01*
X151423714Y-90679285D01*
X151376095Y-90774523D01*
X151280857Y-90869761D01*
X151138000Y-90917380D01*
X150899904Y-90917380D01*
X151852285Y-90012619D02*
X151899904Y-89965000D01*
X151995142Y-89917380D01*
X152233238Y-89917380D01*
X152328476Y-89965000D01*
X152376095Y-90012619D01*
X152423714Y-90107857D01*
X152423714Y-90203095D01*
X152376095Y-90345952D01*
X151804666Y-90917380D01*
X152423714Y-90917380D01*
%TO.C,D1*%
X150899904Y-85837380D02*
X150899904Y-84837380D01*
X151138000Y-84837380D01*
X151280857Y-84885000D01*
X151376095Y-84980238D01*
X151423714Y-85075476D01*
X151471333Y-85265952D01*
X151471333Y-85408809D01*
X151423714Y-85599285D01*
X151376095Y-85694523D01*
X151280857Y-85789761D01*
X151138000Y-85837380D01*
X150899904Y-85837380D01*
X152423714Y-85837380D02*
X151852285Y-85837380D01*
X152138000Y-85837380D02*
X152138000Y-84837380D01*
X152042761Y-84980238D01*
X151947523Y-85075476D01*
X151852285Y-85123095D01*
%TO.C,C1*%
X129661333Y-103862142D02*
X129613714Y-103909761D01*
X129470857Y-103957380D01*
X129375619Y-103957380D01*
X129232761Y-103909761D01*
X129137523Y-103814523D01*
X129089904Y-103719285D01*
X129042285Y-103528809D01*
X129042285Y-103385952D01*
X129089904Y-103195476D01*
X129137523Y-103100238D01*
X129232761Y-103005000D01*
X129375619Y-102957380D01*
X129470857Y-102957380D01*
X129613714Y-103005000D01*
X129661333Y-103052619D01*
X130613714Y-103957380D02*
X130042285Y-103957380D01*
X130328000Y-103957380D02*
X130328000Y-102957380D01*
X130232761Y-103100238D01*
X130137523Y-103195476D01*
X130042285Y-103243095D01*
%TO.C,P1*%
X147089904Y-121737380D02*
X147089904Y-120737380D01*
X147470857Y-120737380D01*
X147566095Y-120785000D01*
X147613714Y-120832619D01*
X147661333Y-120927857D01*
X147661333Y-121070714D01*
X147613714Y-121165952D01*
X147566095Y-121213571D01*
X147470857Y-121261190D01*
X147089904Y-121261190D01*
X148613714Y-121737380D02*
X148042285Y-121737380D01*
X148328000Y-121737380D02*
X148328000Y-120737380D01*
X148232761Y-120880238D01*
X148137523Y-120975476D01*
X148042285Y-121023095D01*
%TO.C,P2*%
X167663904Y-121737380D02*
X167663904Y-120737380D01*
X168044857Y-120737380D01*
X168140095Y-120785000D01*
X168187714Y-120832619D01*
X168235333Y-120927857D01*
X168235333Y-121070714D01*
X168187714Y-121165952D01*
X168140095Y-121213571D01*
X168044857Y-121261190D01*
X167663904Y-121261190D01*
X168616285Y-120832619D02*
X168663904Y-120785000D01*
X168759142Y-120737380D01*
X168997238Y-120737380D01*
X169092476Y-120785000D01*
X169140095Y-120832619D01*
X169187714Y-120927857D01*
X169187714Y-121023095D01*
X169140095Y-121165952D01*
X168568666Y-121737380D01*
X169187714Y-121737380D01*
%TO.C,P3*%
X140485904Y-78811380D02*
X140485904Y-77811380D01*
X140866857Y-77811380D01*
X140962095Y-77859000D01*
X141009714Y-77906619D01*
X141057333Y-78001857D01*
X141057333Y-78144714D01*
X141009714Y-78239952D01*
X140962095Y-78287571D01*
X140866857Y-78335190D01*
X140485904Y-78335190D01*
X141390666Y-77811380D02*
X142009714Y-77811380D01*
X141676380Y-78192333D01*
X141819238Y-78192333D01*
X141914476Y-78239952D01*
X141962095Y-78287571D01*
X142009714Y-78382809D01*
X142009714Y-78620904D01*
X141962095Y-78716142D01*
X141914476Y-78763761D01*
X141819238Y-78811380D01*
X141533523Y-78811380D01*
X141438285Y-78763761D01*
X141390666Y-78716142D01*
%TO.C,P4*%
X164869904Y-78811380D02*
X164869904Y-77811380D01*
X165250857Y-77811380D01*
X165346095Y-77859000D01*
X165393714Y-77906619D01*
X165441333Y-78001857D01*
X165441333Y-78144714D01*
X165393714Y-78239952D01*
X165346095Y-78287571D01*
X165250857Y-78335190D01*
X164869904Y-78335190D01*
X166298476Y-78144714D02*
X166298476Y-78811380D01*
X166060380Y-77763761D02*
X165822285Y-78478047D01*
X166441333Y-78478047D01*
D13*
%TO.C,VR1*%
X134618000Y-84745000D02*
X134618000Y-87030000D01*
X134618000Y-89570000D02*
X134618000Y-91735000D01*
X134618000Y-91735000D02*
X128018000Y-91735000D01*
X128018000Y-91735000D02*
X128018000Y-89570000D01*
X128018000Y-87030000D02*
X128018000Y-84745000D01*
X128018000Y-84735000D02*
X134618000Y-84735000D01*
D14*
X135482000Y-88265000D02*
G75*
G03*
X135482000Y-88265000I-100000J0D01*
G01*
D13*
%TO.C,S2*%
X164518000Y-85815000D02*
X164518000Y-90715000D01*
X159078000Y-85815000D02*
X159078000Y-90715000D01*
D14*
X159998000Y-92915000D02*
G75*
G03*
X159998000Y-92915000I-100000J0D01*
G01*
D13*
%TO.C,S1*%
X172138000Y-85815000D02*
X172138000Y-90715000D01*
X166698000Y-85815000D02*
X166698000Y-90715000D01*
D14*
X167618000Y-92915000D02*
G75*
G03*
X167618000Y-92915000I-100000J0D01*
G01*
D15*
%TO.C,J2*%
X168148000Y-99635000D02*
X155388000Y-99635000D01*
X169418000Y-99635000D02*
X170748000Y-99635000D01*
X170748000Y-99635000D02*
X170748000Y-100965000D01*
X168148000Y-99635000D02*
X168148000Y-102295000D01*
X155388000Y-99635000D02*
X155388000Y-102295000D01*
X168148000Y-102295000D02*
X155388000Y-102295000D01*
%TO.C,J1*%
X157988000Y-112455000D02*
X170748000Y-112455000D01*
X156718000Y-112455000D02*
X155388000Y-112455000D01*
X155388000Y-112455000D02*
X155388000Y-111125000D01*
X157988000Y-112455000D02*
X157988000Y-109795000D01*
X170748000Y-112455000D02*
X170748000Y-109795000D01*
X157988000Y-109795000D02*
X170748000Y-109795000D01*
%TO.C,D2*%
X151938000Y-87965000D02*
X151338000Y-87965000D01*
X151938000Y-88565000D02*
X151338000Y-88565000D01*
%TO.C,D1*%
X151938000Y-82885000D02*
X151338000Y-82885000D01*
X151938000Y-83485000D02*
X151338000Y-83485000D01*
%TO.C,C1*%
X128987000Y-97385000D02*
X128987000Y-96077000D01*
X128107000Y-100124000D02*
X128107000Y-99465000D01*
X127827000Y-99744000D02*
X127827000Y-99465000D01*
X127867000Y-99808000D02*
X127867000Y-99465000D01*
X129588000Y-97385000D02*
X129588000Y-95889000D01*
X128787000Y-100672000D02*
X128787000Y-99465000D01*
X130068000Y-101005000D02*
X130068000Y-95845000D01*
X128907000Y-97385000D02*
X128907000Y-96115000D01*
X128227000Y-97385000D02*
X128227000Y-96599000D01*
X128627000Y-97385000D02*
X128627000Y-96276000D01*
X129347000Y-97385000D02*
X129347000Y-95945000D01*
X128587000Y-97385000D02*
X128587000Y-96303000D01*
X127907000Y-99868000D02*
X127907000Y-99465000D01*
X129988000Y-101004000D02*
X129988000Y-95846000D01*
X128467000Y-100460000D02*
X128467000Y-99465000D01*
X127507000Y-98943000D02*
X127507000Y-97907000D01*
X129267000Y-100880000D02*
X129267000Y-99465000D01*
X128747000Y-100649000D02*
X128747000Y-99465000D01*
X128947000Y-97385000D02*
X128947000Y-96096000D01*
X128147000Y-97385000D02*
X128147000Y-96682000D01*
X128427000Y-97385000D02*
X128427000Y-96421000D01*
X127827000Y-97385000D02*
X127827000Y-97106000D01*
X127787000Y-97385000D02*
X127787000Y-97174000D01*
X128267000Y-97385000D02*
X128267000Y-96561000D01*
X129508000Y-97385000D02*
X129508000Y-95905000D01*
X129588000Y-100961000D02*
X129588000Y-99465000D01*
X129347000Y-100905000D02*
X129347000Y-99465000D01*
X129147000Y-100839000D02*
X129147000Y-99465000D01*
X129388000Y-97385000D02*
X129388000Y-95934000D01*
X127547000Y-99102000D02*
X127547000Y-97748000D01*
X128667000Y-100600000D02*
X128667000Y-99465000D01*
X129307000Y-97385000D02*
X129307000Y-95957000D01*
X128187000Y-100210000D02*
X128187000Y-99465000D01*
X127907000Y-97385000D02*
X127907000Y-96982000D01*
X128347000Y-100362000D02*
X128347000Y-99465000D01*
X128627000Y-100574000D02*
X128627000Y-99465000D01*
X128947000Y-100754000D02*
X128947000Y-99465000D01*
X129708000Y-97385000D02*
X129708000Y-95869000D01*
X127867000Y-97385000D02*
X127867000Y-97042000D01*
X129468000Y-100936000D02*
X129468000Y-99465000D01*
X127707000Y-99523000D02*
X127707000Y-97327000D01*
X128147000Y-100168000D02*
X128147000Y-99465000D01*
X129828000Y-97385000D02*
X129828000Y-95856000D01*
X129548000Y-97385000D02*
X129548000Y-95897000D01*
X129628000Y-100968000D02*
X129628000Y-99465000D01*
X129908000Y-101001000D02*
X129908000Y-95849000D01*
X128547000Y-100520000D02*
X128547000Y-99465000D01*
X128827000Y-97385000D02*
X128827000Y-96157000D01*
X129067000Y-100807000D02*
X129067000Y-99465000D01*
X129428000Y-97385000D02*
X129428000Y-95924000D01*
X129548000Y-100953000D02*
X129548000Y-99465000D01*
X130028000Y-101005000D02*
X130028000Y-95845000D01*
X129027000Y-100790000D02*
X129027000Y-99465000D01*
X128067000Y-97385000D02*
X128067000Y-96772000D01*
X129428000Y-100926000D02*
X129428000Y-99465000D01*
X129748000Y-100986000D02*
X129748000Y-99465000D01*
X128707000Y-100625000D02*
X128707000Y-99465000D01*
X128467000Y-97385000D02*
X128467000Y-96390000D01*
X128227000Y-100251000D02*
X128227000Y-99465000D01*
X129668000Y-97385000D02*
X129668000Y-95875000D01*
X129227000Y-100867000D02*
X129227000Y-99465000D01*
X129508000Y-100945000D02*
X129508000Y-99465000D01*
X129668000Y-100975000D02*
X129668000Y-99465000D01*
X128667000Y-97385000D02*
X128667000Y-96250000D01*
X129107000Y-97385000D02*
X129107000Y-96027000D01*
X129948000Y-101003000D02*
X129948000Y-95847000D01*
X129868000Y-100998000D02*
X129868000Y-95852000D01*
X129828000Y-100994000D02*
X129828000Y-99465000D01*
X129468000Y-97385000D02*
X129468000Y-95914000D01*
X128187000Y-97385000D02*
X128187000Y-96640000D01*
X128867000Y-100715000D02*
X128867000Y-99465000D01*
X128507000Y-100490000D02*
X128507000Y-99465000D01*
X129027000Y-97385000D02*
X129027000Y-96060000D01*
X128067000Y-100078000D02*
X128067000Y-99465000D01*
X129708000Y-100981000D02*
X129708000Y-99465000D01*
X128347000Y-97385000D02*
X128347000Y-96488000D01*
X129227000Y-97385000D02*
X129227000Y-95983000D01*
X128507000Y-97385000D02*
X128507000Y-96360000D01*
X128787000Y-97385000D02*
X128787000Y-96178000D01*
X128307000Y-97385000D02*
X128307000Y-96524000D01*
X129267000Y-97385000D02*
X129267000Y-95970000D01*
X128747000Y-97385000D02*
X128747000Y-96201000D01*
X129107000Y-100823000D02*
X129107000Y-99465000D01*
X132872775Y-99900000D02*
X132372775Y-99900000D01*
X128027000Y-97385000D02*
X128027000Y-96820000D01*
X127587000Y-99230000D02*
X127587000Y-97620000D01*
X127787000Y-99676000D02*
X127787000Y-99465000D01*
X129187000Y-97385000D02*
X129187000Y-95997000D01*
X129788000Y-97385000D02*
X129788000Y-95860000D01*
X127467000Y-98709000D02*
X127467000Y-98141000D01*
X129187000Y-100853000D02*
X129187000Y-99465000D01*
X127667000Y-99436000D02*
X127667000Y-97414000D01*
X129067000Y-97385000D02*
X129067000Y-96043000D01*
X128427000Y-100429000D02*
X128427000Y-99465000D01*
X127947000Y-99925000D02*
X127947000Y-99465000D01*
X127747000Y-99603000D02*
X127747000Y-97247000D01*
X128587000Y-100547000D02*
X128587000Y-99465000D01*
X128707000Y-97385000D02*
X128707000Y-96225000D01*
X129147000Y-97385000D02*
X129147000Y-96011000D01*
X132622775Y-100150000D02*
X132622775Y-99650000D01*
X128987000Y-100773000D02*
X128987000Y-99465000D01*
X128387000Y-100396000D02*
X128387000Y-99465000D01*
X129388000Y-100916000D02*
X129388000Y-99465000D01*
X128547000Y-97385000D02*
X128547000Y-96330000D01*
X129748000Y-97385000D02*
X129748000Y-95864000D01*
X128867000Y-97385000D02*
X128867000Y-96135000D01*
X128827000Y-100693000D02*
X128827000Y-99465000D01*
X127987000Y-99979000D02*
X127987000Y-99465000D01*
X128907000Y-100735000D02*
X128907000Y-99465000D01*
X127987000Y-97385000D02*
X127987000Y-96871000D01*
X127627000Y-99340000D02*
X127627000Y-97510000D01*
X128387000Y-97385000D02*
X128387000Y-96454000D01*
X129788000Y-100990000D02*
X129788000Y-99465000D01*
X127947000Y-97385000D02*
X127947000Y-96925000D01*
X128307000Y-100326000D02*
X128307000Y-99465000D01*
X129628000Y-97385000D02*
X129628000Y-95882000D01*
X128027000Y-100030000D02*
X128027000Y-99465000D01*
X129307000Y-100893000D02*
X129307000Y-99465000D01*
X128107000Y-97385000D02*
X128107000Y-96726000D01*
X128267000Y-100289000D02*
X128267000Y-99465000D01*
X132688000Y-98425000D02*
G75*
G03*
X132688000Y-98425000I-2620000J0D01*
G01*
D10*
%TO.C,P1*%
X157988000Y-125095000D02*
X157988000Y-122555000D01*
X140208000Y-125095000D02*
X157988000Y-125095000D01*
X157988000Y-122555000D02*
X140208000Y-122555000D01*
X138938000Y-122275000D02*
X137388000Y-122275000D01*
X137388000Y-122275000D02*
X137388000Y-125375000D01*
X137388000Y-125375000D02*
X138938000Y-125375000D01*
X140208000Y-125095000D02*
X140208000Y-122555000D01*
%TO.C,P2*%
X163068000Y-125095000D02*
X163068000Y-122555000D01*
X161798000Y-122275000D02*
X160248000Y-122275000D01*
X175768000Y-122555000D02*
X163068000Y-122555000D01*
X163068000Y-125095000D02*
X175768000Y-125095000D01*
X175768000Y-125095000D02*
X175768000Y-122555000D01*
X160248000Y-122275000D02*
X160248000Y-125375000D01*
X160248000Y-125375000D02*
X161798000Y-125375000D01*
%TO.C,P3*%
X128244000Y-74015000D02*
X128244000Y-77115000D01*
X131064000Y-76835000D02*
X153924000Y-76835000D01*
X153924000Y-76835000D02*
X153924000Y-74295000D01*
X153924000Y-74295000D02*
X131064000Y-74295000D01*
X129794000Y-74015000D02*
X128244000Y-74015000D01*
X128244000Y-77115000D02*
X129794000Y-77115000D01*
X131064000Y-76835000D02*
X131064000Y-74295000D01*
%TO.C,P4*%
X175768000Y-74295000D02*
X157988000Y-74295000D01*
X155168000Y-77115000D02*
X156718000Y-77115000D01*
X157988000Y-76835000D02*
X175768000Y-76835000D01*
X157988000Y-76835000D02*
X157988000Y-74295000D01*
X156718000Y-74015000D02*
X155168000Y-74015000D01*
X175768000Y-76835000D02*
X175768000Y-74295000D01*
X155168000Y-74015000D02*
X155168000Y-77115000D01*
%TO.C,P5*%
X127254000Y-123825000D02*
G75*
G03*
X127254000Y-123825000I-2286000J0D01*
G01*
%TO.C,P6*%
X179324000Y-118745000D02*
G75*
G03*
X179324000Y-118745000I-2286000J0D01*
G01*
%TO.C,P7*%
X125984000Y-78105000D02*
G75*
G03*
X125984000Y-78105000I-2286000J0D01*
G01*
%TO.C,P8*%
X179324000Y-90805000D02*
G75*
G03*
X179324000Y-90805000I-2286000J0D01*
G01*
%TD*%
D16*
%TO.C,P1*%
X138938000Y-123825000D03*
X141478000Y-123825000D03*
X144018000Y-123825000D03*
X146558000Y-123825000D03*
X149098000Y-123825000D03*
X151638000Y-123825000D03*
X154178000Y-123825000D03*
X156718000Y-123825000D03*
%TD*%
%TO.C,P2*%
X161798000Y-123825000D03*
X164338000Y-123825000D03*
X166878000Y-123825000D03*
X169418000Y-123825000D03*
X171958000Y-123825000D03*
X174498000Y-123825000D03*
%TD*%
%TO.C,P3*%
X129794000Y-75565000D03*
X132334000Y-75565000D03*
X134874000Y-75565000D03*
X137414000Y-75565000D03*
X139954000Y-75565000D03*
X142494000Y-75565000D03*
X145034000Y-75565000D03*
X147574000Y-75565000D03*
X150114000Y-75565000D03*
X152654000Y-75565000D03*
%TD*%
%TO.C,P4*%
X156718000Y-75565000D03*
X159258000Y-75565000D03*
X161798000Y-75565000D03*
X164338000Y-75565000D03*
X166878000Y-75565000D03*
X169418000Y-75565000D03*
X171958000Y-75565000D03*
X174498000Y-75565000D03*
%TD*%
D17*
%TO.C,P5*%
X124968000Y-123825000D03*
%TD*%
%TO.C,P6*%
X177038000Y-118745000D03*
%TD*%
%TO.C,P7*%
X123698000Y-78105000D03*
%TD*%
%TO.C,P8*%
X177038000Y-90805000D03*
%TD*%
M02*
