%TF.GenerationSoftware,KiCad,Pcbnew,(6.0.2-0)*%
%TF.CreationDate,2022-05-07T22:26:20-07:00*%
%TF.ProjectId,cpe301d_kicad_David_Nakasone,63706533-3031-4645-9f6b-696361645f44,rev?*%
%TF.SameCoordinates,Original*%
%TF.FileFunction,Copper,L1,Top*%
%TF.FilePolarity,Positive*%
%FSLAX46Y46*%
G04 Gerber Fmt 4.6, Leading zero omitted, Abs format (unit mm)*
G04 Created by KiCad (PCBNEW (6.0.2-0)) date 2022-05-07 22:26:20*
%MOMM*%
%LPD*%
G01*
G04 APERTURE LIST*
%TA.AperFunction,Profile*%
%ADD10C,0.150000*%
%TD*%
%TA.AperFunction,ComponentPad*%
%ADD11C,1.222000*%
%TD*%
%TA.AperFunction,ComponentPad*%
%ADD12R,1.222000X1.222000*%
%TD*%
%TA.AperFunction,SMDPad,CuDef*%
%ADD13R,1.000000X1.700000*%
%TD*%
%TA.AperFunction,SMDPad,CuDef*%
%ADD14R,1.040000X1.020000*%
%TD*%
%TA.AperFunction,SMDPad,CuDef*%
%ADD15R,1.020000X1.040000*%
%TD*%
%TA.AperFunction,ComponentPad*%
%ADD16R,1.700000X1.700000*%
%TD*%
%TA.AperFunction,ComponentPad*%
%ADD17O,1.700000X1.700000*%
%TD*%
%TA.AperFunction,SMDPad,CuDef*%
%ADD18R,0.600000X0.800000*%
%TD*%
%TA.AperFunction,ComponentPad*%
%ADD19R,1.600000X1.600000*%
%TD*%
%TA.AperFunction,ComponentPad*%
%ADD20C,1.600000*%
%TD*%
%TA.AperFunction,ComponentPad*%
%ADD21O,1.727200X2.032000*%
%TD*%
%TA.AperFunction,ComponentPad*%
%ADD22C,4.064000*%
%TD*%
%TA.AperFunction,ViaPad*%
%ADD23C,0.600000*%
%TD*%
%TA.AperFunction,Conductor*%
%ADD24C,0.200000*%
%TD*%
%TA.AperFunction,Conductor*%
%ADD25C,0.250000*%
%TD*%
G04 APERTURE END LIST*
D10*
X179578000Y-88519000D02*
X177038000Y-85979000D01*
X177038000Y-126365000D02*
X177038000Y-123825000D01*
X177038000Y-74549000D02*
X175514000Y-73025000D01*
X177038000Y-123825000D02*
X179578000Y-121285000D01*
X110998000Y-73025000D02*
X110998000Y-126365000D01*
X179578000Y-121285000D02*
X179578000Y-88519000D01*
X110998000Y-126365000D02*
X177038000Y-126365000D01*
X175514000Y-73025000D02*
X110998000Y-73025000D01*
X177038000Y-85979000D02*
X177038000Y-74549000D01*
D11*
%TO.P,VR1,3*%
%TO.N,GND*%
X128778000Y-88265000D03*
%TO.P,VR1,2*%
%TO.N,/A0*%
X131318000Y-90805000D03*
D12*
%TO.P,VR1,1*%
%TO.N,Net-(C1-Pad1)*%
X133858000Y-88265000D03*
%TD*%
D13*
%TO.P,S2,2*%
%TO.N,/3(\u002A\u002A)*%
X159898000Y-85115000D03*
%TO.P,S2,1*%
X159898000Y-91415000D03*
%TO.P,S2,3*%
%TO.N,GND*%
X163698000Y-91415000D03*
%TO.P,S2,4*%
X163698000Y-85115000D03*
%TD*%
%TO.P,S1,2*%
%TO.N,/2*%
X167518000Y-85115000D03*
%TO.P,S1,1*%
X167518000Y-91415000D03*
%TO.P,S1,3*%
%TO.N,GND*%
X171318000Y-91415000D03*
%TO.P,S1,4*%
X171318000Y-85115000D03*
%TD*%
D14*
%TO.P,R3,1*%
%TO.N,+5V*%
X145823000Y-88265000D03*
%TO.P,R3,2*%
%TO.N,Net-(D2-Pad2)*%
X147293000Y-88265000D03*
%TD*%
%TO.P,R2,1*%
%TO.N,+5V*%
X145823000Y-83185000D03*
%TO.P,R2,2*%
%TO.N,Net-(D1-Pad2)*%
X147293000Y-83185000D03*
%TD*%
D15*
%TO.P,R1,1*%
%TO.N,+5V*%
X131318000Y-109320000D03*
%TO.P,R1,2*%
%TO.N,Net-(C1-Pad1)*%
X131318000Y-107850000D03*
%TD*%
D16*
%TO.P,J2,1,Pin_1*%
%TO.N,unconnected-(J2-Pad1)*%
X169418000Y-100965000D03*
D17*
%TO.P,J2,2,Pin_2*%
%TO.N,GND*%
X166878000Y-100965000D03*
%TO.P,J2,3,Pin_3*%
%TO.N,unconnected-(J2-Pad3)*%
X164338000Y-100965000D03*
%TO.P,J2,4,Pin_4*%
%TO.N,unconnected-(J2-Pad4)*%
X161798000Y-100965000D03*
%TO.P,J2,5,Pin_5*%
%TO.N,unconnected-(J2-Pad5)*%
X159258000Y-100965000D03*
%TO.P,J2,6,Pin_6*%
%TO.N,unconnected-(J2-Pad6)*%
X156718000Y-100965000D03*
%TD*%
D16*
%TO.P,J1,1,Pin_1*%
%TO.N,+5V*%
X156718000Y-111125000D03*
D17*
%TO.P,J1,2,Pin_2*%
%TO.N,unconnected-(J1-Pad2)*%
X159258000Y-111125000D03*
%TO.P,J1,3,Pin_3*%
%TO.N,GND*%
X161798000Y-111125000D03*
%TO.P,J1,4,Pin_4*%
%TO.N,/A5(SCL)*%
X164338000Y-111125000D03*
%TO.P,J1,5,Pin_5*%
%TO.N,/A4(SDA)*%
X166878000Y-111125000D03*
%TO.P,J1,6,Pin_6*%
%TO.N,unconnected-(J1-Pad6)*%
X169418000Y-111125000D03*
%TD*%
D18*
%TO.P,D2,2*%
%TO.N,Net-(D2-Pad2)*%
X150938000Y-88265000D03*
%TO.P,D2,1*%
%TO.N,/5(\u002A\u002A)*%
X152338000Y-88265000D03*
%TD*%
%TO.P,D1,2*%
%TO.N,Net-(D1-Pad2)*%
X150938000Y-83185000D03*
%TO.P,D1,1*%
%TO.N,/6(\u002A\u002A)*%
X152338000Y-83185000D03*
%TD*%
D19*
%TO.P,C1,1*%
%TO.N,Net-(C1-Pad1)*%
X131318000Y-98425000D03*
D20*
%TO.P,C1,2*%
%TO.N,GND*%
X128818000Y-98425000D03*
%TD*%
D21*
%TO.P,P1,1,Pin_1*%
%TO.N,unconnected-(P1-Pad1)*%
X138938000Y-123825000D03*
%TO.P,P1,2,Pin_2*%
%TO.N,/IOREF*%
X141478000Y-123825000D03*
%TO.P,P1,3,Pin_3*%
%TO.N,/Reset*%
X144018000Y-123825000D03*
%TO.P,P1,4,Pin_4*%
%TO.N,+3V3*%
X146558000Y-123825000D03*
%TO.P,P1,5,Pin_5*%
%TO.N,+5V*%
X149098000Y-123825000D03*
%TO.P,P1,6,Pin_6*%
%TO.N,GND*%
X151638000Y-123825000D03*
%TO.P,P1,7,Pin_7*%
X154178000Y-123825000D03*
%TO.P,P1,8,Pin_8*%
%TO.N,/Vin*%
X156718000Y-123825000D03*
%TD*%
%TO.P,P2,1,Pin_1*%
%TO.N,/A0*%
X161798000Y-123825000D03*
%TO.P,P2,2,Pin_2*%
%TO.N,/A1*%
X164338000Y-123825000D03*
%TO.P,P2,3,Pin_3*%
%TO.N,/A2*%
X166878000Y-123825000D03*
%TO.P,P2,4,Pin_4*%
%TO.N,/A3*%
X169418000Y-123825000D03*
%TO.P,P2,5,Pin_5*%
%TO.N,/A4(SDA)*%
X171958000Y-123825000D03*
%TO.P,P2,6,Pin_6*%
%TO.N,/A5(SCL)*%
X174498000Y-123825000D03*
%TD*%
%TO.P,P3,1,Pin_1*%
%TO.N,/A5(SCL)*%
X129794000Y-75565000D03*
%TO.P,P3,2,Pin_2*%
%TO.N,/A4(SDA)*%
X132334000Y-75565000D03*
%TO.P,P3,3,Pin_3*%
%TO.N,/AREF*%
X134874000Y-75565000D03*
%TO.P,P3,4,Pin_4*%
%TO.N,GND*%
X137414000Y-75565000D03*
%TO.P,P3,5,Pin_5*%
%TO.N,/13(SCK)*%
X139954000Y-75565000D03*
%TO.P,P3,6,Pin_6*%
%TO.N,/12(MISO)*%
X142494000Y-75565000D03*
%TO.P,P3,7,Pin_7*%
%TO.N,/11(\u002A\u002A{slash}MOSI)*%
X145034000Y-75565000D03*
%TO.P,P3,8,Pin_8*%
%TO.N,/10(\u002A\u002A{slash}SS)*%
X147574000Y-75565000D03*
%TO.P,P3,9,Pin_9*%
%TO.N,/9(\u002A\u002A)*%
X150114000Y-75565000D03*
%TO.P,P3,10,Pin_10*%
%TO.N,/8*%
X152654000Y-75565000D03*
%TD*%
%TO.P,P4,1,Pin_1*%
%TO.N,/7*%
X156718000Y-75565000D03*
%TO.P,P4,2,Pin_2*%
%TO.N,/6(\u002A\u002A)*%
X159258000Y-75565000D03*
%TO.P,P4,3,Pin_3*%
%TO.N,/5(\u002A\u002A)*%
X161798000Y-75565000D03*
%TO.P,P4,4,Pin_4*%
%TO.N,/4*%
X164338000Y-75565000D03*
%TO.P,P4,5,Pin_5*%
%TO.N,/3(\u002A\u002A)*%
X166878000Y-75565000D03*
%TO.P,P4,6,Pin_6*%
%TO.N,/2*%
X169418000Y-75565000D03*
%TO.P,P4,7,Pin_7*%
%TO.N,/1(Tx)*%
X171958000Y-75565000D03*
%TO.P,P4,8,Pin_8*%
%TO.N,/0(Rx)*%
X174498000Y-75565000D03*
%TD*%
D22*
%TO.P,P5,1,Pin_1*%
%TO.N,unconnected-(P5-Pad1)*%
X124968000Y-123825000D03*
%TD*%
%TO.P,P6,1,Pin_1*%
%TO.N,unconnected-(P6-Pad1)*%
X177038000Y-118745000D03*
%TD*%
%TO.P,P7,1,Pin_1*%
%TO.N,unconnected-(P7-Pad1)*%
X123698000Y-78105000D03*
%TD*%
%TO.P,P8,1,Pin_1*%
%TO.N,unconnected-(P8-Pad1)*%
X177038000Y-90805000D03*
%TD*%
D23*
%TO.N,/A4(SDA)*%
X164338000Y-103505000D03*
X131318000Y-78105000D03*
%TO.N,/A5(SCL)*%
X128778000Y-80645000D03*
%TO.N,/A4(SDA)*%
X177038000Y-111125000D03*
%TO.N,GND*%
X128778000Y-106045000D03*
%TO.N,/A4(SDA)*%
X166878000Y-118745000D03*
%TO.N,/A0*%
X156718000Y-118745000D03*
%TO.N,GND*%
X154178000Y-118745000D03*
X149098000Y-111125000D03*
%TO.N,/A0*%
X136398000Y-95885000D03*
%TD*%
D24*
%TO.N,/A4(SDA)*%
X166878000Y-106045000D02*
X164338000Y-103505000D01*
X174498000Y-106045000D02*
X171958000Y-106045000D01*
X171958000Y-106045000D02*
X166878000Y-106045000D01*
D25*
X132334000Y-77089000D02*
X131318000Y-78105000D01*
X132334000Y-75565000D02*
X132334000Y-77089000D01*
%TO.N,/A5(SCL)*%
X129794000Y-79629000D02*
X128778000Y-80645000D01*
X129794000Y-75565000D02*
X129794000Y-79629000D01*
%TO.N,Net-(D1-Pad2)*%
X147293000Y-83185000D02*
X150938000Y-83185000D01*
%TO.N,/A4(SDA)*%
X166878000Y-111125000D02*
X166878000Y-106045000D01*
D24*
X177038000Y-111125000D02*
X177038000Y-108585000D01*
X177038000Y-108585000D02*
X174498000Y-106045000D01*
D25*
%TO.N,GND*%
X128818000Y-106005000D02*
X128778000Y-106045000D01*
X128818000Y-98425000D02*
X128818000Y-106005000D01*
%TO.N,/A4(SDA)*%
X171958000Y-123825000D02*
X166878000Y-118745000D01*
%TO.N,/A5(SCL)*%
X164338000Y-111125000D02*
X174498000Y-121285000D01*
X174498000Y-121285000D02*
X174498000Y-123825000D01*
%TO.N,GND*%
X161798000Y-111125000D02*
X154178000Y-118745000D01*
%TO.N,/A0*%
X161798000Y-123825000D02*
X156718000Y-118745000D01*
%TO.N,GND*%
X151638000Y-121285000D02*
X154178000Y-118745000D01*
X151638000Y-123825000D02*
X151638000Y-121285000D01*
X154178000Y-123825000D02*
X154178000Y-118745000D01*
X149098000Y-95885000D02*
X149098000Y-111125000D01*
X166878000Y-95885000D02*
X149098000Y-95885000D01*
X171318000Y-91445000D02*
X166878000Y-95885000D01*
X171318000Y-91415000D02*
X171318000Y-91445000D01*
X171318000Y-85115000D02*
X171318000Y-91415000D01*
X163698000Y-85115000D02*
X163698000Y-91415000D01*
X166878000Y-100965000D02*
X166878000Y-94595000D01*
X166878000Y-94595000D02*
X163698000Y-91415000D01*
%TO.N,+5V*%
X149098000Y-123825000D02*
X149098000Y-118745000D01*
X149098000Y-118745000D02*
X156718000Y-111125000D01*
X141478000Y-95885000D02*
X141478000Y-83185000D01*
X141478000Y-83185000D02*
X145823000Y-83185000D01*
X141478000Y-98425000D02*
X141478000Y-95885000D01*
X145823000Y-91540000D02*
X145823000Y-88265000D01*
X131318000Y-109320000D02*
X132078000Y-109320000D01*
X132813000Y-108585000D02*
X136398000Y-108585000D01*
X132078000Y-109320000D02*
X132813000Y-108585000D01*
X136398000Y-103505000D02*
X141478000Y-98425000D01*
X136398000Y-108585000D02*
X136398000Y-103505000D01*
X141478000Y-95885000D02*
X145823000Y-91540000D01*
%TO.N,/A0*%
X131318000Y-90805000D02*
X136398000Y-95885000D01*
%TO.N,Net-(C1-Pad1)*%
X138938000Y-98425000D02*
X138938000Y-88265000D01*
X131318000Y-98425000D02*
X138938000Y-98425000D01*
X138938000Y-88265000D02*
X133858000Y-88265000D01*
%TO.N,GND*%
X128818000Y-88305000D02*
X128778000Y-88265000D01*
X128818000Y-98425000D02*
X128818000Y-88305000D01*
X128778000Y-84201000D02*
X137414000Y-75565000D01*
X128778000Y-88265000D02*
X128778000Y-84201000D01*
%TO.N,Net-(C1-Pad1)*%
X131318000Y-107850000D02*
X131318000Y-98425000D01*
%TO.N,+5V*%
X131318000Y-116205000D02*
X131318000Y-108694511D01*
X149098000Y-123825000D02*
X141478000Y-116205000D01*
X141478000Y-116205000D02*
X131318000Y-116205000D01*
%TO.N,Net-(D2-Pad2)*%
X150938000Y-88265000D02*
X147293000Y-88265000D01*
%TO.N,/5(\u002A\u002A)*%
X154178000Y-88265000D02*
X156718000Y-85725000D01*
X152338000Y-88265000D02*
X154178000Y-88265000D01*
X156718000Y-85725000D02*
X156718000Y-80645000D01*
X156718000Y-80645000D02*
X161798000Y-75565000D01*
%TO.N,/6(\u002A\u002A)*%
X152338000Y-83185000D02*
X152338000Y-82485000D01*
X152338000Y-82485000D02*
X159258000Y-75565000D01*
%TO.N,/3(\u002A\u002A)*%
X159898000Y-85115000D02*
X159898000Y-82545000D01*
X159898000Y-82545000D02*
X166878000Y-75565000D01*
X159898000Y-91415000D02*
X159898000Y-85115000D01*
%TO.N,/2*%
X167518000Y-91415000D02*
X167518000Y-85115000D01*
X167518000Y-82545000D02*
X169418000Y-80645000D01*
X169418000Y-80645000D02*
X169418000Y-75565000D01*
X167518000Y-85115000D02*
X167518000Y-82545000D01*
%TD*%
M02*
